<svg width="88" height="49" viewBox="0 0 88 49" fill="none" xmlns="http://www.w3.org/2000/svg">
<path d="M53.4271 8.45319C47.3918 11.6838 43.3353 15.404 41.4555 18.6346H53.9218C53.7239 17.264 53.1303 12.7607 53.4271 8.45319Z" fill="white"/>
<path d="M68.2679 2.87296C63.5189 4.04774 59.2645 5.61411 55.7027 7.37628C55.8016 13.8376 56.6921 17.0682 56.8899 18.6346H70.5435C69.0595 13.0544 68.4658 7.76788 68.2679 2.87296Z" fill="white"/>
<path d="M87.2643 18.6346H73.8085C71.6319 12.7607 70.7414 7.18053 70.4446 2.38351C75.3916 1.30662 81.13 0.523436 87.2643 0.425537H87.3632L87.2643 18.6346Z" fill="white"/>
<path d="M68.2679 0.523436C63.222 1.60032 59.2645 3.06879 55.7027 4.73307C55.7027 3.36249 55.8016 1.99191 55.9005 0.425537L68.2679 0.523436Z" fill="white"/>
<path d="M39.4767 18.6346C40.3671 11.9776 42.5438 5.80995 45.9077 0.425537H54.1197C53.9218 2.4814 53.625 4.24358 53.526 5.80995C44.8194 10.5091 41.0597 16.2851 39.6746 18.5367L39.4767 18.6346Z" fill="white"/>
<path d="M44.6215 0.425537H29.9785V18.6346H38.1905C38.982 11.9776 41.2576 5.80995 44.6215 0.425537Z" fill="white"/>
<path d="M25.5262 33.711H29.9785V30.4803C29.9785 29.4035 29.9785 29.2077 29.8796 28.7182H29.9785C30.0774 29.0119 30.0774 29.0119 30.2753 29.3056C30.3743 29.5014 30.4732 29.6972 30.5721 29.8929L30.869 30.3824L32.9467 33.711H38.3883L33.9361 27.1518L37.9926 20.9842H32.9467L31.2647 23.9211L30.5721 24.9001C30.2753 25.3896 30.0774 25.7812 29.9785 26.1728H29.8796V25.977C29.9785 25.3896 29.9785 25.0959 29.9785 24.1169V20.9842H25.5262V33.711Z" fill="#2B2A29"/>
<path d="M38.9819 33.711H47.7875V30.1866H43.5331V28.914H47.0949V25.5854H43.5331V24.4106H47.5896V20.9842H38.9819V33.711Z" fill="#2B2A29"/>
<path d="M14.3462 48.0042H18.7985V43.6967H21.6677V48.0042H26.2189V35.2774H21.6677V39.5849H18.7985V35.2774H14.3462V48.0042Z" fill="#2B2A29"/>
<path d="M27.2083 35.2773V43.305C27.2083 44.7735 27.8019 46.1441 28.7913 46.8294C29.8796 47.7104 31.4626 48.102 33.3425 48.102C37.0032 48.102 39.1799 46.1441 39.1799 42.9134V35.1794H34.5297V42.4239C34.5297 43.5987 34.134 44.0882 33.2435 44.0882C32.3531 44.0882 31.9573 43.5008 31.9573 42.4239V35.1794H27.2083V35.2773Z" fill="#2B2A29"/>
<path d="M46.8971 40.5639V43.5988H48.9748C48.777 44.2841 48.0844 44.6756 47.095 44.6756C45.6109 44.6756 44.6215 43.5009 44.6215 41.9345C44.6215 40.2702 45.7098 38.9975 47.1939 38.9975C47.9854 38.9975 48.5791 39.2912 48.9748 39.9765L53.3282 38.3123C52.9324 37.5291 52.5366 37.1375 51.6462 36.5501C50.36 35.5711 48.777 35.0816 46.8971 35.0816C42.6427 35.0816 39.6746 37.8228 39.6746 41.7387C39.6746 45.6546 42.5438 48.2979 46.7982 48.2979C48.9748 48.2979 51.0526 47.4168 52.4377 45.9483C53.526 44.6756 53.9218 43.3051 53.9218 40.5639H46.8971Z" fill="#2B2A29"/>
<path d="M54.8123 48.0042H59.2645V43.6967H62.1337V48.0042H66.586V35.2774H62.1337V39.5849H59.2645V35.2774H54.8123V48.0042Z" fill="#2B2A29"/>
<path d="M67.6743 48.0042H76.4799V44.5778H72.3245V43.3051H75.7873V39.9765H72.3245V38.8018H76.282V35.2774H67.6743V48.0042Z" fill="#2B2A29"/>
<path d="M76.9747 47.123C78.5578 47.9062 80.3387 48.2978 81.9217 48.2978C85.0877 48.2978 87.3633 46.6336 87.5612 44.0882V43.305C87.3633 41.6407 86.275 40.466 84.3952 40.0744L82.9111 39.7807C82.3174 39.5849 82.1196 39.487 82.1196 39.0954C82.1196 38.7038 82.5153 38.4101 83.109 38.4101C83.9994 38.4101 84.7909 38.7038 85.8793 39.3891L87.1655 36.0605C85.7803 35.2773 84.593 34.9836 83.109 34.9836C79.844 34.9836 77.3705 36.9416 77.3705 39.6828C77.3705 41.4449 78.5578 42.7176 80.5365 43.1092L81.9217 43.4029C82.5153 43.5008 82.7132 43.6966 82.7132 44.0882C82.7132 44.4798 82.2185 44.8714 81.6249 44.8714C80.7344 44.8714 79.6461 44.4798 78.8546 43.8924L78.4588 43.5008L76.9747 47.123Z" fill="#2B2A29"/>
<path d="M16.0281 32.0467H19.5899L19.9856 33.6131H24.9326L20.3814 20.8863H15.2366L10.7843 33.6131H15.7313L16.0281 32.0467ZM16.8196 29.1098C16.8196 29.1098 17.6111 25.8791 17.71 25.1938H17.809C17.9079 25.7812 18.6994 29.1098 18.6994 29.1098H16.8196Z" fill="#2B2A29"/>
<path d="M53.3281 26.6623V24.4106H54.1196C54.7133 24.4106 55.208 24.9001 55.208 25.4875C55.208 26.1728 54.7133 26.5644 54.0207 26.6623H53.3281ZM48.7769 33.711H53.3281V29.5993H53.4271C53.526 29.7951 53.526 29.7951 53.6249 29.9909L55.4058 33.711H60.7486L57.4836 28.8161C58.374 28.4245 58.5719 28.1308 58.9676 27.7392C59.4623 27.1518 59.6602 26.2707 59.6602 25.3896C59.6602 23.8232 58.9676 22.5506 57.5825 21.7674C56.692 21.2779 55.9005 21.0821 54.5154 21.0821H48.678V33.711H48.7769Z" fill="#2B2A29"/>
<path d="M4.25438 25.8791V23.9211H5.0459C5.83741 23.9211 6.13423 24.2148 6.13423 24.8022C6.13423 25.3896 5.73847 25.7812 5.0459 25.7812H4.25438V25.8791ZM4.25438 30.6761V28.5224H5.34271C6.23317 28.5224 6.72786 28.914 6.72786 29.5993C6.72786 30.2845 6.23317 30.6761 5.34271 30.6761H4.25438ZM0 20.9842V33.711H6.52998C8.11301 33.711 9.39922 33.2215 10.0918 32.4383C10.6854 31.8509 10.9822 30.9698 10.9822 30.1866C10.9822 29.5014 10.7844 28.8161 10.3886 28.3266C9.99285 27.8371 9.5971 27.5434 8.70664 27.1518C9.20134 26.956 9.49816 26.7602 9.79497 26.3686C10.1907 25.8791 10.3886 25.1938 10.3886 24.5085C10.3886 23.7253 10.0918 22.9422 9.5971 22.3548C8.90452 21.3758 7.61831 20.9842 5.63953 20.9842H0Z" fill="#2B2A29"/>
</svg>
