<svg width="108" height="58" viewBox="0 0 108 58" fill="none" xmlns="http://www.w3.org/2000/svg">
<path d="M65.8984 9.72605C58.4544 13.6402 53.451 18.1473 51.1323 22.0615H66.5086C66.2645 20.4009 65.5323 14.9449 65.8984 9.72605Z" fill="white"/>
<path d="M84.2033 2.96519C78.3457 4.3885 73.0983 6.28626 68.705 8.42123C68.8271 16.2495 69.9254 20.1636 70.1694 22.0613H87.0101C85.1796 15.3006 84.4474 8.89567 84.2033 2.96519Z" fill="white"/>
<path d="M107.634 22.0614H91.0373C88.3525 14.9448 87.2542 8.18406 86.8881 2.37219C92.9898 1.06749 100.068 0.11861 107.634 0H107.756L107.634 22.0614Z" fill="white"/>
<path d="M84.2033 0.11861C77.9796 1.42332 73.0983 3.20246 68.705 5.21882C68.705 3.55829 68.8271 1.89775 68.9491 0L84.2033 0.11861Z" fill="white"/>
<path d="M48.6913 22.0614C49.7896 13.9959 52.4744 6.52353 56.6235 0H66.7523C66.5083 2.4908 66.1422 4.62578 66.0201 6.52353C55.2812 12.2168 50.6439 19.2148 48.9354 21.9428L48.6913 22.0614Z" fill="white"/>
<path d="M55.0373 0H36.9763V22.0614H47.1051C48.0814 13.9959 50.8881 6.52353 55.0373 0Z" fill="white"/>
<path d="M31.4846 40.3271H36.9761V36.413C36.9761 35.1083 36.9761 34.8711 36.8541 34.278H36.9761C37.0982 34.6338 37.0982 34.6338 37.3422 34.9897C37.4643 35.2269 37.5863 35.4641 37.7083 35.7013L38.0744 36.2944L40.6372 40.3271H47.349L41.8575 32.3802L46.8609 24.9078H40.6372L38.5626 28.4661L37.7083 29.6522C37.3422 30.2453 37.0982 30.7197 36.9761 31.1942H36.8541V30.9569C36.9761 30.2453 36.9761 29.8894 36.9761 28.7033V24.9078H31.4846V40.3271Z" fill="white"/>
<path d="M48.0812 40.3271H58.9422V36.0571H53.6948V34.5152H58.088V30.4825H53.6948V29.0592H58.6981V24.9078H48.0812V40.3271Z" fill="white"/>
<path d="M17.695 57.6445H23.1865V52.4257H26.7255V57.6445H32.3391V42.2252H26.7255V47.4441H23.1865V42.2252H17.695V57.6445Z" fill="white"/>
<path d="M33.5592 51.9511C33.5592 53.7302 34.2914 55.3907 35.5117 56.221C36.8541 57.2885 38.8066 57.7629 41.1253 57.7629C45.6405 57.7629 48.3253 55.3907 48.3253 51.4766V42.1065H42.5897V50.8836C42.5897 52.3069 42.1015 52.8999 41.0032 52.8999C39.9049 52.8999 39.4168 52.1883 39.4168 50.8836V42.1065H33.5592V51.9511Z" fill="white"/>
<path d="M57.844 48.6298V52.3067H60.4067C60.1626 53.137 59.3084 53.6114 58.088 53.6114C56.2575 53.6114 55.0372 52.1881 55.0372 50.2904C55.0372 48.274 56.3796 46.7321 58.2101 46.7321C59.1863 46.7321 59.9185 47.0879 60.4067 47.9182L65.7762 45.9018C65.288 44.9529 64.7999 44.4785 63.7016 43.7668C62.1151 42.5807 60.1626 41.9877 57.844 41.9877C52.5965 41.9877 48.9355 45.3088 48.9355 50.0532C48.9355 54.7975 52.4745 58 57.7219 58C60.4067 58 62.9694 56.9325 64.6778 55.1534C66.0202 53.6114 66.5084 51.9509 66.5084 48.6298H57.844Z" fill="white"/>
<path d="M67.6066 57.6445H73.0981V52.4257H76.6371V57.6445H82.1286V42.2252H76.6371V47.4441H73.0981V42.2252H67.6066V57.6445Z" fill="white"/>
<path d="M83.471 57.6445H94.332V53.4932H89.2066V51.9512H93.4778V47.9185H89.2066V46.4952H94.0879V42.2252H83.471V57.6445Z" fill="white"/>
<path d="M94.9424 56.5765C96.8949 57.5254 99.0915 57.9998 101.044 57.9998C104.949 57.9998 107.756 55.9835 108 52.8996V51.9507C107.756 49.9344 106.414 48.5111 104.095 48.0366L102.264 47.6808C101.532 47.4436 101.288 47.325 101.288 46.8505C101.288 46.3761 101.776 46.0203 102.508 46.0203C103.607 46.0203 104.583 46.3761 105.925 47.2064L107.512 43.1736C105.803 42.2248 104.339 41.8689 102.508 41.8689C98.4814 41.8689 95.4305 44.2411 95.4305 47.5622C95.4305 49.6972 96.8949 51.2391 99.3356 51.7135L101.044 52.0694C101.776 52.188 102.02 52.4252 102.02 52.8996C102.02 53.3741 101.41 53.8485 100.678 53.8485C99.5797 53.8485 98.2373 53.3741 97.261 52.6624L96.7729 52.188L94.9424 56.5765Z" fill="white"/>
<path d="M19.7693 38.311H24.1626L24.6507 40.2088H30.7524L25.1388 24.7895H18.7931L13.3015 40.2088H19.4032L19.7693 38.311ZM20.7456 34.7527C20.7456 34.7527 21.7219 30.8386 21.8439 30.0083H21.9659C22.088 30.72 23.0642 34.7527 23.0642 34.7527H20.7456Z" fill="white"/>
<path d="M65.776 31.7874V29.0593H66.7523C67.4845 29.0593 68.0947 29.6524 68.0947 30.364C68.0947 31.1943 67.4845 31.6688 66.6302 31.7874H65.776ZM65.776 40.3273V35.3456H65.898C66.0201 35.5829 66.0201 35.5829 66.1421 35.8201L68.3387 40.3273H74.9285L70.9014 34.3968C71.9997 33.9223 72.2438 33.5665 72.7319 33.0921C73.3421 32.3804 73.5862 31.3129 73.5862 30.2454C73.5862 28.3477 72.7319 26.8058 71.0235 25.8569C69.9252 25.2638 68.9489 25.0266 67.2404 25.0266H60.0404V40.3273H65.776Z" fill="white"/>
<path d="M5.24745 30.8383V28.4661H6.22372C7.19999 28.4661 7.56609 28.822 7.56609 29.5336C7.56609 30.2453 7.07796 30.7197 6.22372 30.7197H5.24745V30.8383ZM5.24745 36.6502V34.0408H6.58982C7.68813 34.0408 8.2983 34.5152 8.2983 35.3455C8.2983 36.1758 7.68813 36.6502 6.58982 36.6502H5.24745ZM0 24.9078V40.3271H8.05423C10.0068 40.3271 11.5932 39.734 12.4474 38.7852C13.1796 38.0735 13.5458 37.006 13.5458 36.0571C13.5458 35.2269 13.3017 34.3966 12.8135 33.8036C12.3254 33.2105 11.8373 32.8547 10.739 32.3802C11.3491 32.143 11.7152 31.9058 12.0813 31.4314C12.5695 30.8383 12.8135 30.0081 12.8135 29.1778C12.8135 28.2289 12.4474 27.28 11.8373 26.5684C10.983 25.3823 9.3966 24.9078 6.95593 24.9078H0Z" fill="white"/>
</svg>
