<svg width="88" height="49" viewBox="0 0 88 49" fill="none" xmlns="http://www.w3.org/2000/svg">
<path d="M53.4271 8.45312C47.3919 11.6838 43.3353 15.4039 41.4555 18.6346H53.9218C53.724 17.264 53.1303 12.7607 53.4271 8.45312Z" fill="#006CB5"/>
<path d="M68.268 2.87305C63.5189 4.04783 59.2645 5.6142 55.7027 7.37637C55.8016 13.8377 56.6921 17.0683 56.89 18.6347H70.5436C69.0595 13.0545 68.4658 7.76797 68.268 2.87305Z" fill="#006CB5"/>
<path d="M87.2643 18.6346H73.8086C71.6319 12.7607 70.7415 7.18053 70.4446 2.38351C75.3916 1.30662 81.1301 0.523436 87.2643 0.425537H87.3632L87.2643 18.6346Z" fill="#006CB5"/>
<path d="M68.268 0.523436C63.2221 1.60032 59.2645 3.06879 55.7027 4.73307C55.7027 3.36249 55.8016 1.99191 55.9006 0.425537L68.268 0.523436Z" fill="#006CB5"/>
<path d="M39.4767 18.6346C40.3672 11.9776 42.5438 5.80995 45.9078 0.425537H54.1197C53.9218 2.4814 53.625 4.24358 53.5261 5.80995C44.8194 10.5091 41.0597 16.2851 39.6746 18.5367L39.4767 18.6346Z" fill="#006CB5"/>
<path d="M44.6215 0.425537H29.9785V18.6346H38.1905C38.982 11.9776 41.2576 5.80995 44.6215 0.425537Z" fill="#006CB5"/>
<path d="M25.5263 33.7109H29.9786V30.4803C29.9786 29.4034 29.9786 29.2076 29.8796 28.7181H29.9786C30.0775 29.0118 30.0775 29.0118 30.2754 29.3055C30.3743 29.5013 30.4733 29.6971 30.5722 29.8929L30.869 30.3824L32.9467 33.7109H38.3884L33.9361 27.1517L37.9926 20.9841H32.9467L31.2648 23.9211L30.5722 24.9001C30.2754 25.3896 30.0775 25.7812 29.9786 26.1727H29.8796V25.977C29.9786 25.3896 29.9786 25.0959 29.9786 24.1169V20.9841H25.5263V33.7109Z" fill="#2B2A29"/>
<path d="M38.982 33.7109H47.7876V30.1866H43.5332V28.9139H47.095V25.5854H43.5332V24.4106H47.5897V20.9841H38.982V33.7109Z" fill="#2B2A29"/>
<path d="M14.3462 48.0041H18.7985V43.6966H21.6677V48.0041H26.2189V35.2773H21.6677V39.5849H18.7985V35.2773H14.3462V48.0041Z" fill="#2B2A29"/>
<path d="M27.2083 35.2773V43.305C27.2083 44.7735 27.8019 46.1441 28.7913 46.8294C29.8796 47.7104 31.4626 48.102 33.3425 48.102C37.0032 48.102 39.1799 46.1441 39.1799 42.9134V35.1794H34.5297V42.4239C34.5297 43.5987 34.134 44.0882 33.2435 44.0882C32.3531 44.0882 31.9573 43.5008 31.9573 42.4239V35.1794H27.2083V35.2773Z" fill="#2B2A29"/>
<path d="M46.8971 40.5639V43.5987H48.9749C48.777 44.284 48.0844 44.6756 47.095 44.6756C45.6109 44.6756 44.6215 43.5008 44.6215 41.9344C44.6215 40.2702 45.7099 38.9975 47.194 38.9975C47.9855 38.9975 48.5791 39.2912 48.9749 39.9765L53.3282 38.3122C52.9324 37.529 52.5367 37.1374 51.6462 36.55C50.36 35.571 48.777 35.0815 46.8971 35.0815C42.6428 35.0815 39.6746 37.8227 39.6746 41.7386C39.6746 45.6546 42.5438 48.2978 46.7982 48.2978C48.9749 48.2978 51.0526 47.4167 52.4377 45.9483C53.5261 44.6756 53.9218 43.305 53.9218 40.5639H46.8971Z" fill="#2B2A29"/>
<path d="M54.8123 48.0041H59.2645V43.6966H62.1338V48.0041H66.586V35.2773H62.1338V39.5849H59.2645V35.2773H54.8123V48.0041Z" fill="#2B2A29"/>
<path d="M67.6743 48.0041H76.4799V44.5777H72.3245V43.305H75.7873V39.9765H72.3245V38.8017H76.282V35.2773H67.6743V48.0041Z" fill="#2B2A29"/>
<path d="M76.9747 47.123C78.5577 47.9062 80.3386 48.2978 81.9216 48.2978C85.0877 48.2978 87.3633 46.6336 87.5612 44.0882V43.305C87.3633 41.6407 86.2749 40.466 84.3951 40.0744L82.911 39.7807C82.3174 39.5849 82.1195 39.487 82.1195 39.0954C82.1195 38.7038 82.5153 38.4101 83.1089 38.4101C83.9993 38.4101 84.7909 38.7038 85.8792 39.3891L87.1654 36.0605C85.7802 35.2773 84.593 34.9836 83.1089 34.9836C79.8439 34.9836 77.3704 36.9416 77.3704 39.6828C77.3704 41.4449 78.5577 42.7176 80.5365 43.1092L81.9216 43.4029C82.5153 43.5008 82.7131 43.6966 82.7131 44.0882C82.7131 44.4798 82.2184 44.8714 81.6248 44.8714C80.7344 44.8714 79.646 44.4798 78.8545 43.8924L78.4588 43.5008L76.9747 47.123Z" fill="#2B2A29"/>
<path d="M16.0281 32.0466H19.5899L19.9857 33.613H24.9327L20.3815 20.8862H15.2366L10.7844 33.613H15.7313L16.0281 32.0466ZM16.8196 29.1097C16.8196 29.1097 17.6112 25.879 17.7101 25.1938H17.809C17.908 25.7812 18.6995 29.1097 18.6995 29.1097H16.8196Z" fill="#2B2A29"/>
<path d="M53.3282 26.6622V24.4106H54.1197C54.7133 24.4106 55.208 24.9001 55.208 25.4875C55.208 26.1727 54.7133 26.5643 54.0207 26.6622H53.3282ZM48.777 33.7109H53.3282V29.5992H53.4271C53.5261 29.795 53.5261 29.795 53.625 29.9908L55.4059 33.7109H60.7486L57.4836 28.816C58.3741 28.4244 58.5719 28.1307 58.9677 27.7391C59.4624 27.1517 59.6603 26.2706 59.6603 25.3896C59.6603 23.8232 58.9677 22.5505 57.5826 21.7673C56.6921 21.2778 55.9006 21.082 54.5154 21.082H48.678V33.7109H48.777Z" fill="#2B2A29"/>
<path d="M4.25438 25.8791V23.9211H5.0459C5.83741 23.9211 6.13423 24.2148 6.13423 24.8022C6.13423 25.3896 5.73847 25.7812 5.0459 25.7812H4.25438V25.8791ZM4.25438 30.6761V28.5223H5.34271C6.23317 28.5223 6.72786 28.9139 6.72786 29.5992C6.72786 30.2845 6.23317 30.6761 5.34271 30.6761H4.25438ZM0 20.9841V33.7109H6.52998C8.11301 33.7109 9.39922 33.2214 10.0918 32.4382C10.6854 31.8509 10.9822 30.9698 10.9822 30.1866C10.9822 29.5013 10.7844 28.816 10.3886 28.3265C9.99285 27.837 9.5971 27.5433 8.70664 27.1517C9.20134 26.9559 9.49816 26.7601 9.79497 26.3685C10.1907 25.8791 10.3886 25.1938 10.3886 24.5085C10.3886 23.7253 10.0918 22.9421 9.5971 22.3547C8.90452 21.3757 7.61831 20.9841 5.63953 20.9841H0Z" fill="#2B2A29"/>
</svg>
