<svg width="14" height="15" viewBox="0 0 14 15" fill="none" xmlns="http://www.w3.org/2000/svg">
<path d="M8.65821 8.45622L13.5182 7.19622C13.9142 7.12422 14.0582 6.87222 13.9502 6.44022L13.4462 4.96422C13.3022 4.56822 13.0502 4.46022 12.6902 4.60422L8.15421 6.62022L8.51421 1.47222C8.51421 1.04022 8.33421 0.824219 7.90221 0.824219H6.31821C5.88621 0.824219 5.67021 1.04022 5.74221 1.47222L6.21021 6.58422L1.60221 4.71222C1.20621 4.53222 0.954209 4.64022 0.846209 5.07222L0.342209 6.58422C0.234209 6.98022 0.378209 7.23222 0.774209 7.34022L5.63421 8.45622L2.39421 12.4522C2.10621 12.8122 2.14221 13.1002 2.50221 13.3162L3.76221 14.2522C4.12221 14.4682 4.41021 14.3962 4.62621 14.0362L7.14621 9.64422L9.81021 14.0362C10.0262 14.3962 10.2782 14.4682 10.6382 14.1802L11.9342 13.2442C12.2942 13.0282 12.3302 12.7402 12.0422 12.4162L8.65821 8.45622Z" fill="white"/>
</svg>
