<svg width="170" height="60" viewBox="0 0 170 60" fill="none" xmlns="http://www.w3.org/2000/svg">
<path d="M140 60C156.569 60 170 46.5685 170 30C170 13.4315 156.569 0 140 0C123.431 0 110 13.4315 110 30C110 46.5685 123.431 60 140 60Z" fill="url(#paint0_linear)"/>
<path d="M136.263 27.0368C135.343 27.0368 134.312 27.4417 133.723 27.9939L134.165 28.7301C134.643 28.4724 135.232 28.2883 135.711 28.2883C135.821 28.2883 135.931 28.4724 135.931 28.7301C135.931 29.0245 135.527 29.2086 134.459 30.0552C134.128 30.3129 133.612 30.7914 133.612 31.3067C133.612 32.0429 134.275 32.7423 134.938 32.7423C135.674 32.7423 136.778 32.3374 137.146 32.0429L136.741 31.3067C136.3 31.5276 135.747 31.6012 135.49 31.6012C135.379 31.6012 135.306 31.4172 135.269 31.2699C135.232 31.0491 135.416 30.8282 135.711 30.6074C136.447 30.0184 137.735 29.5031 137.698 28.7301C137.698 27.8098 137.183 27.0368 136.263 27.0368ZM145.649 27C143.846 27 142.925 29.2454 142.925 30.7914C142.962 32.1166 144.03 32.6687 145.208 32.6687C146.938 32.6687 147.784 30.2393 147.747 28.8037C147.747 27.5521 146.827 27 145.649 27ZM145.428 28.1043C145.649 28.1043 145.981 28.1411 146.201 28.2515C146.201 28.5092 146.201 28.8037 146.201 29.0613C146.165 29.6135 146.091 31.638 145.244 31.5644C145.024 31.5644 144.729 31.4908 144.508 31.3436C144.471 31.1227 144.471 30.9018 144.508 30.681C144.508 30.2393 144.692 28.0675 145.428 28.1043ZM131.183 27C129.784 27 128.128 27.8098 128.165 29.0245C128.165 29.5399 128.533 29.9448 129.048 30.1288C128.606 30.3129 128.165 30.8282 128.165 31.4908C128.165 32.4479 128.938 32.7055 129.895 32.7055C131.919 32.7055 132.913 30.7178 132.876 28.6196C132.876 27.6994 132.619 27 131.183 27ZM130.668 28.0675C130.852 28.0675 131.183 28.1411 131.33 28.2147L131.183 29.4294C130.668 29.5031 130.557 29.5767 130.152 29.7239C129.968 29.5767 129.858 29.2822 129.858 28.9877C129.858 28.4356 130.152 28.0675 130.668 28.0675ZM131.146 30.1656C131.036 30.9387 130.815 31.7117 130.226 31.7117C129.968 31.7117 129.747 31.5276 129.747 31.2331C129.747 30.8282 129.968 30.4233 131.146 30.1656ZM126.287 27C125.478 27 124.999 27.5521 124.447 28.1411C124.484 27.8834 124.52 27.6626 124.52 27.4785C124.52 27.1472 124.3 27 123.895 27C123.195 27 122.533 27.5153 122.128 27.8466V28.2147H122.827L122.459 32.3006C122.864 32.4847 123.343 32.6687 124.116 32.6687C126.435 32.6687 127.318 29.9448 127.281 28.1411C127.281 27.4417 126.95 27 126.287 27ZM125.367 28.5092C125.441 28.5092 125.551 28.5092 125.625 28.546C125.625 29.5031 125.404 31.638 124.631 31.638C124.41 31.638 124.263 31.6012 124.116 31.5644L124.41 28.6933C124.852 28.546 125.146 28.5092 125.367 28.5092ZM154.557 27.1472H152.974L150.729 32.411H150.692L150.766 31.454L150.729 28.6933C150.729 28.0675 150.803 27.9202 151.208 27.773L151.465 27.6994C151.465 27.5521 151.465 27.2945 151.465 27.1472H148.189C148.152 27.2577 148.116 27.6258 148.116 27.6994L148.631 27.9202C148.778 27.9939 148.889 28.0675 148.925 28.2883L149.109 32.7791C149.109 33.2209 148.962 33.4417 148.704 33.5153L148.336 33.6258C148.336 33.773 148.336 34.1043 148.373 34.2515H151.244L152.57 30.9755L153.158 29.4294H153.232L153.416 30.9755L153.931 34.2883H156.876C156.913 34.1779 156.95 33.7362 156.95 33.6626L156.324 33.4785C156.14 33.4049 156.03 33.2577 156.103 33.0368L157.428 28.7301C157.539 28.4356 157.723 28.1411 157.981 27.9571L158.201 27.773C158.201 27.6258 158.165 27.3681 158.165 27.2209H155.551C155.514 27.3313 155.477 27.6994 155.477 27.8098L156.287 28.1043C156.398 28.1411 156.435 28.2515 156.398 28.4356L155.662 31.3067L155.404 32.5583H155.33L154.557 27.1472ZM141.048 27.0368C139.797 27.0368 138.435 27.6626 138.471 29.0613C138.471 29.6503 138.876 30.0552 139.612 30.2025C139.06 30.4601 138.545 30.9018 138.545 31.5644C138.545 32.3374 139.428 32.7055 140.238 32.7055C141.011 32.7055 141.711 32.5215 141.931 32.411C142.005 32.1534 142.005 31.4172 142.005 31.1595C141.637 31.3067 141.195 31.4908 140.68 31.4908C140.349 31.4908 140.091 31.454 139.87 31.3067C139.87 30.9755 140.864 30.4233 141.416 30.2393L141.306 29.5767C140.57 29.5031 139.87 29.4294 139.833 28.8405C139.833 28.4724 140.201 28.2515 140.68 28.2515C141.122 28.2515 141.784 28.546 142.189 28.7669C142.373 28.4356 142.668 27.8466 142.704 27.4417C142.263 27.2577 141.49 27.0368 141.048 27.0368Z" fill="white"/>
<path d="M161.313 24.0368C162.638 25.8405 163.374 28.0123 163.374 30.2577C163.374 32.5031 162.638 34.6748 161.313 36.4785L160.172 35.6319C161.35 34.0859 161.939 32.2454 161.939 30.2945C161.939 28.3436 161.313 26.5031 160.172 24.9571L161.313 24.0368ZM118.724 36.4417C117.399 34.638 116.663 32.4663 116.663 30.2209C116.663 27.9755 117.399 25.8037 118.724 24L119.865 24.8466C118.687 26.3926 118.098 28.2331 118.098 30.1841C118.098 32.135 118.724 33.9755 119.865 35.5215L118.724 36.4417Z" fill="white"/>
<path d="M53.4271 11.4532C47.3918 14.6838 43.3353 18.404 41.4555 21.6346H53.9218C53.7239 20.264 53.1303 15.7607 53.4271 11.4532Z" fill="white"/>
<path d="M68.2679 5.87296C63.5189 7.04774 59.2645 8.61411 55.7027 10.3763C55.8016 16.8376 56.6921 20.0682 56.8899 21.6346H70.5435C69.0595 16.0544 68.4658 10.7679 68.2679 5.87296Z" fill="white"/>
<path d="M87.2643 21.6346H73.8085C71.6319 15.7607 70.7414 10.1805 70.4446 5.38351C75.3916 4.30662 81.13 3.52344 87.2643 3.42554H87.3632L87.2643 21.6346Z" fill="white"/>
<path d="M68.2679 3.52344C63.222 4.60032 59.2645 6.06879 55.7027 7.73307C55.7027 6.36249 55.8016 4.99191 55.9005 3.42554L68.2679 3.52344Z" fill="white"/>
<path d="M39.4767 21.6346C40.3671 14.9776 42.5438 8.80995 45.9077 3.42554H54.1197C53.9218 5.4814 53.625 7.24358 53.526 8.80995C44.8194 13.5091 41.0597 19.2851 39.6746 21.5367L39.4767 21.6346Z" fill="white"/>
<path d="M44.6215 3.42554H29.9785V21.6346H38.1905C38.982 14.9776 41.2576 8.80995 44.6215 3.42554Z" fill="white"/>
<path d="M25.5262 36.711H29.9785V33.4803C29.9785 32.4035 29.9785 32.2077 29.8796 31.7182H29.9785C30.0774 32.0119 30.0774 32.0119 30.2753 32.3056C30.3743 32.5014 30.4732 32.6972 30.5721 32.8929L30.869 33.3824L32.9467 36.711H38.3883L33.9361 30.1518L37.9926 23.9842H32.9467L31.2647 26.9211L30.5721 27.9001C30.2753 28.3896 30.0774 28.7812 29.9785 29.1728H29.8796V28.977C29.9785 28.3896 29.9785 28.0959 29.9785 27.1169V23.9842H25.5262V36.711Z" fill="#2B2A29"/>
<path d="M38.9819 36.711H47.7875V33.1866H43.5331V31.914H47.0949V28.5854H43.5331V27.4106H47.5896V23.9842H38.9819V36.711Z" fill="#2B2A29"/>
<path d="M14.3462 51.0042H18.7985V46.6967H21.6677V51.0042H26.2189V38.2774H21.6677V42.5849H18.7985V38.2774H14.3462V51.0042Z" fill="#2B2A29"/>
<path d="M27.2083 38.2773V46.305C27.2083 47.7735 27.8019 49.1441 28.7913 49.8294C29.8796 50.7104 31.4626 51.102 33.3425 51.102C37.0032 51.102 39.1799 49.1441 39.1799 45.9134V38.1794H34.5297V45.4239C34.5297 46.5987 34.134 47.0882 33.2435 47.0882C32.3531 47.0882 31.9573 46.5008 31.9573 45.4239V38.1794H27.2083V38.2773Z" fill="#2B2A29"/>
<path d="M46.8971 43.5639V46.5988H48.9748C48.777 47.2841 48.0844 47.6756 47.095 47.6756C45.6109 47.6756 44.6215 46.5009 44.6215 44.9345C44.6215 43.2702 45.7098 41.9975 47.1939 41.9975C47.9854 41.9975 48.5791 42.2912 48.9748 42.9765L53.3282 41.3123C52.9324 40.5291 52.5366 40.1375 51.6462 39.5501C50.36 38.5711 48.777 38.0816 46.8971 38.0816C42.6427 38.0816 39.6746 40.8228 39.6746 44.7387C39.6746 48.6546 42.5438 51.2979 46.7982 51.2979C48.9748 51.2979 51.0526 50.4168 52.4377 48.9483C53.526 47.6756 53.9218 46.3051 53.9218 43.5639H46.8971Z" fill="#2B2A29"/>
<path d="M54.8123 51.0042H59.2645V46.6967H62.1337V51.0042H66.586V38.2774H62.1337V42.5849H59.2645V38.2774H54.8123V51.0042Z" fill="#2B2A29"/>
<path d="M67.6743 51.0042H76.4799V47.5778H72.3245V46.3051H75.7873V42.9765H72.3245V41.8018H76.282V38.2774H67.6743V51.0042Z" fill="#2B2A29"/>
<path d="M76.9747 50.123C78.5578 50.9062 80.3387 51.2978 81.9217 51.2978C85.0877 51.2978 87.3633 49.6336 87.5612 47.0882V46.305C87.3633 44.6407 86.275 43.466 84.3952 43.0744L82.9111 42.7807C82.3174 42.5849 82.1196 42.487 82.1196 42.0954C82.1196 41.7038 82.5153 41.4101 83.109 41.4101C83.9994 41.4101 84.7909 41.7038 85.8793 42.3891L87.1655 39.0605C85.7803 38.2773 84.593 37.9836 83.109 37.9836C79.844 37.9836 77.3705 39.9416 77.3705 42.6828C77.3705 44.4449 78.5578 45.7176 80.5365 46.1092L81.9217 46.4029C82.5153 46.5008 82.7132 46.6966 82.7132 47.0882C82.7132 47.4798 82.2185 47.8714 81.6249 47.8714C80.7344 47.8714 79.6461 47.4798 78.8546 46.8924L78.4588 46.5008L76.9747 50.123Z" fill="#2B2A29"/>
<path d="M16.0281 35.0467H19.5899L19.9856 36.6131H24.9326L20.3814 23.8863H15.2366L10.7843 36.6131H15.7313L16.0281 35.0467ZM16.8196 32.1098C16.8196 32.1098 17.6111 28.8791 17.71 28.1938H17.809C17.9079 28.7812 18.6994 32.1098 18.6994 32.1098H16.8196Z" fill="#2B2A29"/>
<path d="M53.3281 29.6623V27.4106H54.1196C54.7133 27.4106 55.208 27.9001 55.208 28.4875C55.208 29.1728 54.7133 29.5644 54.0207 29.6623H53.3281ZM48.7769 36.711H53.3281V32.5993H53.4271C53.526 32.7951 53.526 32.7951 53.6249 32.9909L55.4058 36.711H60.7486L57.4836 31.8161C58.374 31.4245 58.5719 31.1308 58.9676 30.7392C59.4623 30.1518 59.6602 29.2707 59.6602 28.3896C59.6602 26.8232 58.9676 25.5506 57.5825 24.7674C56.692 24.2779 55.9005 24.0821 54.5154 24.0821H48.678V36.711H48.7769Z" fill="#2B2A29"/>
<path d="M4.25438 28.8791V26.9211H5.0459C5.83741 26.9211 6.13423 27.2148 6.13423 27.8022C6.13423 28.3896 5.73847 28.7812 5.0459 28.7812H4.25438V28.8791ZM4.25438 33.6761V31.5224H5.34271C6.23317 31.5224 6.72786 31.914 6.72786 32.5993C6.72786 33.2845 6.23317 33.6761 5.34271 33.6761H4.25438ZM0 23.9842V36.711H6.52998C8.11301 36.711 9.39922 36.2215 10.0918 35.4383C10.6854 34.8509 10.9822 33.9698 10.9822 33.1866C10.9822 32.5014 10.7844 31.8161 10.3886 31.3266C9.99285 30.8371 9.5971 30.5434 8.70664 30.1518C9.20134 29.956 9.49816 29.7602 9.79497 29.3686C10.1907 28.8791 10.3886 28.1938 10.3886 27.5085C10.3886 26.7253 10.0918 25.9422 9.5971 25.3548C8.90452 24.3758 7.61831 23.9842 5.63953 23.9842H0Z" fill="#2B2A29"/>
<defs>
<linearGradient id="paint0_linear" x1="142.674" y1="60" x2="142.674" y2="8.33394e-06" gradientUnits="userSpaceOnUse">
<stop stop-color="#5805FA"/>
<stop offset="1" stop-color="#5200FF"/>
</linearGradient>
</defs>
</svg>
