<svg width="103" height="58" viewBox="0 0 103 58" fill="none" xmlns="http://www.w3.org/2000/svg">
<path d="M42.7693 37.12C40.7585 37.12 38.4304 38.0912 37.1604 39.2242L38.1658 40.8967C39.2241 40.3572 40.5469 39.9256 41.5522 39.9256C41.7639 39.9256 42.0814 40.3572 42.0814 40.8967C42.0814 41.5442 41.1819 41.9758 38.8007 43.8642C38.1129 44.4037 36.8959 45.4828 36.8959 46.6698C36.9488 48.2884 38.3245 49.907 39.859 49.907C41.4993 49.907 43.8804 48.9898 44.78 48.3423L43.8804 46.6698C42.928 47.1553 41.711 47.3712 41.076 47.3712C40.8644 47.3712 40.6527 46.9395 40.5998 46.6158C40.5469 46.0763 40.9173 45.6446 41.5522 45.1051C43.1926 43.7563 46.0499 42.6233 45.997 40.8967C45.9441 38.9544 44.7271 37.12 42.7693 37.12ZM63.5114 37.12C59.4899 37.12 57.4263 42.1916 57.5321 45.6446C57.585 48.666 59.9662 49.907 62.6118 49.907C66.4745 49.907 68.2736 44.4037 68.2207 41.1665C68.1678 38.3609 66.1041 37.12 63.5114 37.12ZM63.0351 39.6019C63.5643 39.6558 64.2522 39.7098 64.7284 39.9795C64.7284 40.573 64.7284 41.1665 64.7284 41.8139C64.6755 43.0549 64.4638 47.587 62.6118 47.4791C62.0827 47.4251 61.5007 47.3172 61.0244 46.9935C60.9715 46.5079 60.9715 46.0223 60.9715 45.5367C61.0244 44.4037 61.3948 39.5479 63.0351 39.6019ZM31.4987 37.12C28.3768 37.12 24.7257 38.9005 24.7787 41.706C24.7787 42.893 25.6253 43.7563 26.7894 44.1879C25.8369 44.5656 24.8316 45.8065 24.8845 47.2633C24.9374 49.4214 26.5777 50.0149 28.6943 50.0149C33.139 50.0149 35.3614 45.4828 35.3085 40.7888C35.2555 38.6846 34.6735 37.12 31.4987 37.12ZM30.3346 39.4939C30.7579 39.4939 31.4458 39.6558 31.7632 39.8177L31.4987 42.5153C30.3875 42.6772 30.1758 42.7851 29.1705 43.1628C28.8001 42.8391 28.5355 42.1377 28.5355 41.5442C28.5355 40.3572 29.2234 39.4939 30.3346 39.4939ZM31.4458 44.2419C31.2341 45.9684 30.705 47.6949 29.435 47.6949C28.853 47.6949 28.4297 47.2633 28.3768 46.5619C28.3239 45.7526 28.8001 44.8353 31.4458 44.2419ZM20.7043 37.12C18.9053 37.12 17.847 38.3609 16.6829 39.7098C16.7358 39.1163 16.8416 38.6307 16.7887 38.1991C16.7887 37.4977 16.2596 37.12 15.36 37.12C13.8256 37.12 12.344 38.307 11.4444 39.0623V39.9256H13.0319L12.1852 49.0977C13.0848 49.5293 14.143 49.9609 15.8892 49.9609C20.9689 49.9609 22.9267 43.8102 22.8738 39.7637C22.8738 38.0912 22.133 37.12 20.7043 37.12ZM18.6407 40.5191C18.8523 40.5191 19.0111 40.5191 19.1698 40.573C19.2227 42.7851 18.6936 47.587 17.0004 47.587C16.5241 47.587 16.2067 47.533 15.8892 47.3712L16.5241 40.9507C17.4766 40.627 18.1116 40.5191 18.6407 40.5191ZM83.1952 37.3898H79.7558L74.782 49.2595H74.6761L74.8878 47.1014L74.782 40.8967C74.782 39.4939 74.9936 39.1702 75.8931 38.8465L76.4223 38.6307C76.4223 38.3609 76.4223 37.7674 76.4223 37.3898H69.1731C69.0673 37.6595 69.0144 38.4688 69.0144 38.6307L70.1785 39.1163C70.5489 39.2781 70.7605 39.386 70.8134 39.9256L71.2367 50.0688C71.2896 51.094 70.9193 51.5256 70.3901 51.6874L69.5964 51.9572C69.5964 52.2809 69.6493 53.0363 69.6493 53.36H76.0519L79.015 45.9144L80.3379 42.4074H80.4966L80.9199 45.9144L82.084 53.36H88.6453C88.7511 53.0902 88.804 52.1191 88.804 51.9572L87.4283 51.5256C87.005 51.3637 86.7404 51.04 86.8992 50.5005L89.8623 40.7888C90.074 40.0874 90.5502 39.44 91.0793 39.0084L91.5555 38.5767C91.5555 38.307 91.5026 37.7135 91.4497 37.3358H85.6292C85.5234 37.6056 85.4705 38.4149 85.4705 38.6307L87.2166 39.3321C87.4283 39.386 87.5341 39.6558 87.4283 40.0335L85.788 46.5079L85.2059 49.3135H85.0472L83.1952 37.3898ZM53.2991 37.2279C50.5476 37.2279 47.5315 38.6846 47.5844 41.76C47.5844 43.0549 48.4839 44.026 50.0713 44.3498C48.8543 44.8893 47.6902 45.9144 47.6902 47.4251C47.7431 49.2056 49.648 49.9609 51.4471 49.9609C53.1403 49.9609 54.6748 49.5293 55.2039 49.2595C55.3627 48.72 55.3627 46.9935 55.3627 46.4539C54.569 46.7777 53.5636 47.1553 52.4524 47.2093C51.7646 47.2093 51.1296 47.1553 50.6005 46.7777C50.6005 46.0223 52.7699 44.8353 54.0398 44.3498L53.8282 42.8391C52.1879 42.6772 50.6534 42.5153 50.6005 41.1126C50.6005 40.3032 51.3942 39.8177 52.4524 39.8177C53.4578 39.8177 54.8865 40.4651 55.7331 41.0046C56.1564 40.3032 56.7384 38.9544 56.8972 37.9832C56.0506 37.6595 54.3573 37.2279 53.2991 37.2279Z" fill="white"/>
<path d="M98.4621 31.32C101.417 35.1755 103 39.8535 103 44.6343C103 49.4665 101.417 54.1445 98.4621 57.9486L95.9293 56.098C98.5149 52.7565 99.834 48.7982 99.834 44.6343C99.834 40.4704 98.4621 36.5121 95.9293 33.1706L98.4621 31.32ZM4.53791 58C1.58299 54.1445 0 49.4665 0 44.6343C0 39.8535 1.58299 35.1755 4.53791 31.32L7.0707 33.1706C4.53791 36.5121 3.16598 40.4704 3.16598 44.6343C3.16598 48.7982 4.53791 52.8079 7.0707 56.098L4.53791 58Z" fill="white"/>
<path d="M20.447 0H19.8744L16.6989 4.51487V0H16.0221V5.63091H16.5947L19.7703 1.06531V5.63091H20.447V0ZM25.0802 5.63091H25.7569V1.52187H25.0802V3.19592H22.9979V1.52187H22.3211V5.63091H22.9979V3.70321H25.0802V5.63091ZM28.9324 2.02916H30.4942V1.52187H26.694V2.02916H28.2557V5.63091H28.9324V2.02916ZM34.2423 5.42799L34.0862 4.97143C33.6176 5.17435 33.2532 5.2758 32.8888 5.2758C32.0038 5.2758 31.5874 4.71779 31.5353 3.65248H34.2944C34.3464 3.50029 34.3464 3.34811 34.3464 3.24665C34.3464 2.68863 34.1903 2.2828 33.93 1.97843C33.6697 1.67405 33.2532 1.52187 32.7847 1.52187C32.2121 1.52187 31.7436 1.72478 31.4312 2.07988C31.0668 2.33353 30.9106 2.89155 30.9106 3.55102C30.9106 4.26123 31.0668 4.76851 31.4312 5.17435C31.7436 5.52945 32.2121 5.73236 32.8368 5.73236C33.3573 5.73236 33.8259 5.63091 34.2423 5.42799ZM33.7218 3.14519H31.5353C31.6394 2.33353 32.0559 1.97843 32.7327 1.97843C33.045 1.97843 33.3053 2.07988 33.4615 2.2828C33.6176 2.43499 33.7218 2.73936 33.7218 3.14519ZM38.7193 1.52187H36.0644L35.8561 3.95685C35.8041 4.36268 35.752 4.66706 35.5958 4.81924C35.4917 5.02216 35.2314 5.12362 34.9191 5.22507L35.0753 5.73236C35.5438 5.63091 35.9082 5.47872 36.0644 5.22507C36.2726 4.9207 36.3767 4.5656 36.4288 4.05831L36.637 2.02916H38.0946V5.63091H38.7193V1.52187ZM40.8537 1.52187L40.6454 3.95685C40.5934 4.36268 40.5413 4.66706 40.3851 4.81924C40.281 5.02216 40.0207 5.12362 39.7084 5.22507L39.8646 5.73236C40.3331 5.63091 40.6975 5.47872 40.8537 5.22507C41.0619 4.9207 41.2181 4.5656 41.2701 4.05831L41.4263 2.02916H42.8839V5.63091H43.5607V1.52187H40.8537ZM48.2459 5.42799L48.0897 4.97143C47.6212 5.17435 47.2568 5.2758 46.8924 5.2758C46.0074 5.2758 45.5909 4.71779 45.5389 3.65248H48.2979C48.35 3.50029 48.35 3.34811 48.35 3.24665C48.35 2.68863 48.1938 2.2828 47.9335 1.97843C47.6732 1.67405 47.2568 1.52187 46.7882 1.52187C46.2156 1.52187 45.7471 1.72478 45.4347 2.07988C45.1224 2.33353 44.9662 2.89155 44.9662 3.55102C44.9662 4.26123 45.1224 4.76851 45.4868 5.17435C45.7992 5.52945 46.2677 5.73236 46.8924 5.73236C47.3609 5.73236 47.8294 5.63091 48.2459 5.42799ZM47.7773 3.14519H45.5909C45.695 2.33353 46.1115 1.97843 46.7882 1.97843C47.1006 1.97843 47.3609 2.07988 47.5171 2.2828C47.6732 2.43499 47.7773 2.73936 47.7773 3.14519ZM52.9831 5.63091L52.3584 4.05831C52.2023 3.75394 51.994 3.50029 51.6817 3.39883L52.879 1.52187H52.1502L51.057 3.29738H50.4323V1.52187H49.7555V5.63091H50.4323V3.80467H50.9008C51.3173 3.80467 51.5776 3.95685 51.6817 4.26123L52.2023 5.63091H52.9831ZM55.4819 2.02916H57.0436V1.52187H53.2955V2.02916H54.8572V5.63091H55.534V2.02916H55.4819ZM61.5206 1.52187H60.8438L59.6465 4.9207L58.241 1.52187H57.5121L59.2821 5.73236L59.2301 5.83382C59.0218 6.29038 58.8136 6.59475 58.5533 6.74694C58.293 6.89913 57.9286 7.00059 57.4601 7.05131L57.5642 7.5586C58.1889 7.5586 58.6574 7.40642 58.9698 7.15277C59.3342 6.89913 59.5945 6.4933 59.8027 5.93528L61.5206 1.52187ZM64.6441 5.63091H65.2167C65.1646 5.12362 65.1646 4.76851 65.1646 4.46414V2.73936C65.1646 1.87697 64.6961 1.42041 63.7591 1.42041C63.3426 1.42041 62.822 1.52187 62.3015 1.72478L62.4576 2.18134C62.9262 1.97843 63.3426 1.9277 63.707 1.9277C64.2276 1.9277 64.5399 2.18134 64.5399 2.73936V3.19592C63.707 3.19592 63.0823 3.29738 62.7179 3.55102C62.3015 3.75394 62.0932 4.10904 62.0932 4.61633C62.0932 4.97143 62.1973 5.22507 62.4056 5.42799C62.6138 5.63091 62.8741 5.73236 63.2385 5.73236C63.655 5.73236 64.1235 5.52945 64.592 5.17435C64.5399 5.32653 64.592 5.47872 64.6441 5.63091ZM64.4358 3.70321V4.66706C63.9673 5.02216 63.6029 5.22507 63.2906 5.22507C63.0823 5.22507 62.9262 5.17435 62.822 5.02216C62.7179 4.86997 62.6659 4.71779 62.6659 4.51487C62.6659 4.2105 62.822 4.00758 63.0823 3.85539C63.3947 3.75394 63.8632 3.70321 64.4358 3.70321ZM69.9019 1.52187H67.2469L67.0387 3.95685C66.9867 4.36268 66.9346 4.66706 66.7784 4.81924C66.6743 5.02216 66.414 5.12362 66.1017 5.22507L66.2579 5.73236C66.7264 5.63091 67.0908 5.47872 67.2469 5.22507C67.4552 4.97143 67.5593 4.5656 67.6114 4.05831L67.7675 2.07988H69.2251V5.68163H69.9019V1.52187ZM72.3486 2.993V1.52187H71.6719V5.58018C71.9842 5.63091 72.4007 5.63091 72.8692 5.63091C73.4418 5.63091 73.8583 5.52945 74.1706 5.2758C74.483 5.02216 74.6392 4.66706 74.6392 4.26123C74.6392 3.85539 74.483 3.55102 74.1706 3.29738C73.8583 3.09446 73.4418 2.94228 72.8692 2.94228C72.713 2.94228 72.5568 2.993 72.3486 2.993ZM72.3486 5.12362V3.50029C72.5568 3.50029 72.713 3.44956 72.8692 3.44956C73.1815 3.44956 73.4418 3.50029 73.6501 3.65248C73.8583 3.80467 73.9103 4.00758 73.9103 4.26123C73.9103 4.5656 73.8062 4.76851 73.6501 4.9207C73.4939 5.07289 73.2336 5.12362 72.9212 5.12362C72.8171 5.17435 72.6089 5.17435 72.3486 5.12362ZM78.5435 5.63091H79.2202V1.52187H78.5435V3.19592H76.4612V1.52187H75.7844V5.63091H76.4612V3.70321H78.5435V5.63091ZM83.1246 5.63091H83.6972C83.6451 5.12362 83.6451 4.76851 83.6451 4.46414V2.73936C83.6451 1.87697 83.1766 1.42041 82.2396 1.42041C81.8231 1.42041 81.3025 1.52187 80.782 1.72478L80.9381 2.18134C81.4067 1.97843 81.8231 1.9277 82.1875 1.9277C82.7081 1.9277 83.0205 2.18134 83.0205 2.73936V3.19592C82.1875 3.19592 81.5628 3.29738 81.1984 3.55102C80.782 3.75394 80.5737 4.10904 80.5737 4.61633C80.5737 4.97143 80.6778 5.22507 80.8861 5.42799C81.0943 5.63091 81.3546 5.73236 81.719 5.73236C82.1355 5.73236 82.604 5.52945 83.0725 5.17435C83.0725 5.32653 83.1246 5.47872 83.1246 5.63091ZM82.9684 3.70321V4.66706C82.4999 5.02216 82.1355 5.22507 81.8231 5.22507C81.6149 5.22507 81.4587 5.17435 81.3546 5.02216C81.2505 4.86997 81.1984 4.71779 81.1984 4.51487C81.1984 4.2105 81.3546 4.00758 81.6149 3.85539C81.9272 3.75394 82.3958 3.70321 82.9684 3.70321ZM86.8727 1.52187C85.6754 1.52187 85.1028 1.97843 85.1028 2.84082C85.1028 3.34811 85.3631 3.75394 85.8836 3.95685C85.7275 4.05831 85.5713 4.26123 85.4672 4.46414L84.9466 5.63091H85.6754L86.0919 4.66706C86.248 4.31195 86.5083 4.15977 86.8727 4.15977H87.4454V5.68163H88.1221V1.52187H86.8727ZM87.4454 3.60175H86.8727C86.5604 3.60175 86.3001 3.55102 86.0919 3.39883C85.8836 3.24665 85.7795 3.04373 85.7795 2.79009C85.7795 2.2828 86.1439 2.02916 86.8207 2.02916H87.4454V3.60175ZM32.108 11.8198C31.4833 11.8198 31.0147 12.0227 30.6503 12.3778C30.2859 12.7837 30.1298 13.291 30.1298 14.0012C30.1298 14.6606 30.2859 15.1679 30.6503 15.5738C30.9627 15.9289 31.4312 16.1318 32.0559 16.1318C32.6806 16.1318 33.1491 15.9289 33.4615 15.523C33.8259 15.1172 33.982 14.6099 33.982 13.8997C33.982 13.2402 33.8259 12.7329 33.5135 12.3778C33.1491 12.0227 32.7327 11.8198 32.108 11.8198ZM32.0559 15.6245C31.6394 15.6245 31.3271 15.4723 31.1189 15.2187C30.9106 14.9143 30.8065 14.5592 30.8065 14.0012C30.8065 13.4939 30.9106 13.0881 31.1189 12.7837C31.3271 12.4793 31.6394 12.3778 32.0559 12.3778C32.4724 12.3778 32.7327 12.53 32.9409 12.7837C33.1491 13.0373 33.2532 13.4432 33.2532 13.9504C33.2532 14.5085 33.1491 14.9143 32.9409 15.1679C32.7847 15.4723 32.4724 15.6245 32.0559 15.6245ZM38.407 11.9213H35.752L35.5438 14.3563C35.4917 14.7621 35.4397 15.0665 35.2835 15.2187C35.1794 15.4216 34.9191 15.523 34.6067 15.6245L34.7629 16.1318C35.2314 16.0303 35.5958 15.8781 35.752 15.6245C35.9602 15.3708 36.0644 14.965 36.1164 14.4577L36.2726 12.4793H37.7302V16.0811H38.407V11.9213ZM43.6127 11.9213H43.0921L40.8016 14.965V11.9213H40.1769V16.0303H40.6975L42.988 12.9359V16.0303H43.6127V11.9213ZM49.3911 16.0303H50.0679L49.7555 11.9213H49.1308L47.6732 15.1172L46.2156 11.9213H45.5909L45.2786 16.0303H45.9033L46.1115 12.9866L47.465 16.0303H47.8815L49.1829 12.9866L49.3911 16.0303ZM54.3366 16.0303H55.0134V11.9213H51.6296V16.0303H52.3064V12.4286H54.3366V16.0303ZM60.2712 11.9213H59.7506L57.4601 14.965V11.9213H56.8354V16.0303H57.356L59.6465 12.9359V16.0303H60.2712V11.9213ZM64.1755 16.0303H64.7482C64.6961 15.523 64.6961 15.1679 64.6961 14.8636V13.1895C64.6961 12.3271 64.2276 11.8706 63.2906 11.8706C62.8741 11.8706 62.3535 11.972 61.8329 12.1749L61.9891 12.6315C62.4576 12.4286 62.8741 12.3778 63.2385 12.3778C63.7591 12.3778 64.0714 12.6315 64.0714 13.1895V13.6461C63.2385 13.6461 62.6138 13.7475 62.2494 14.0012C61.8329 14.2041 61.6247 14.5592 61.6247 15.0665C61.6247 15.4216 61.7288 15.6752 61.9371 15.8781C62.1453 16.0811 62.4056 16.1825 62.77 16.1825C63.1864 16.1825 63.655 15.9796 64.1235 15.6245C64.1235 15.7767 64.1755 15.9289 64.1755 16.0303ZM64.0194 14.1026V15.0665C63.5508 15.4216 63.1864 15.6245 62.8741 15.6245C62.6659 15.6245 62.5097 15.5738 62.4056 15.4216C62.3015 15.2694 62.2494 15.1172 62.2494 14.9143C62.2494 14.6099 62.4056 14.407 62.6659 14.2548C62.9782 14.1534 63.3947 14.1026 64.0194 14.1026ZM70.2142 15.523H69.6416V11.9213H66.7784L66.6223 14.2548C66.5702 14.5592 66.5702 14.8128 66.4661 15.0157C66.414 15.1679 66.3099 15.3709 66.1537 15.5738H65.7893V17.4H66.362V16.0811H69.6416V17.4H70.2142V15.523ZM68.9649 15.523H66.8305C67.0387 15.2187 67.1949 14.7621 67.2469 14.2041L67.3511 12.4286H68.9649V15.523ZM73.598 16.0303H74.1706C74.1186 15.523 74.1186 15.1679 74.1186 14.8636V13.1895C74.1186 12.3271 73.6501 11.8706 72.713 11.8706C72.2965 11.8706 71.776 11.972 71.2554 12.1749L71.4116 12.6315C71.8801 12.4286 72.2965 12.3778 72.6609 12.3778C73.1815 12.3778 73.4939 12.6315 73.4939 13.1895V13.6461C72.661 13.6461 72.0363 13.7475 71.6719 14.0012C71.2554 14.2041 71.0472 14.5592 71.0472 15.0665C71.0472 15.4216 71.1513 15.6752 71.3595 15.8781C71.5677 16.0811 71.828 16.1825 72.1924 16.1825C72.6089 16.1825 73.0774 15.9796 73.5459 15.6245C73.5459 15.7767 73.598 15.9289 73.598 16.0303ZM73.4418 14.1026V15.0665C72.9733 15.4216 72.6089 15.6245 72.2966 15.6245C72.0883 15.6245 71.9322 15.5738 71.828 15.4216C71.7239 15.2694 71.6719 15.1172 71.6719 14.9143C71.6719 14.6099 71.828 14.407 72.0883 14.2548C72.4007 14.1534 72.8171 14.1026 73.4418 14.1026Z" fill="white"/>
</svg>
