<svg width="60" height="60" viewBox="0 0 60 60" fill="none" xmlns="http://www.w3.org/2000/svg">
<path d="M30 60C46.5685 60 60 46.5685 60 30C60 13.4315 46.5685 0 30 0C13.4315 0 0 13.4315 0 30C0 46.5685 13.4315 60 30 60Z" fill="url(#paint0_linear)"/>
<path d="M26.2627 27.0368C25.3425 27.0368 24.3118 27.4417 23.7229 27.9939L24.1646 28.7301C24.6431 28.4724 25.2321 28.2883 25.7106 28.2883C25.821 28.2883 25.9315 28.4724 25.9315 28.7301C25.9315 29.0245 25.5265 29.2086 24.4591 30.0552C24.1278 30.3129 23.6124 30.7914 23.6124 31.3067C23.6124 32.0429 24.275 32.7423 24.9376 32.7423C25.6738 32.7423 26.7781 32.3374 27.1462 32.0429L26.7413 31.3067C26.2996 31.5276 25.7474 31.6012 25.4897 31.6012C25.3793 31.6012 25.3057 31.4172 25.2689 31.2699C25.2321 31.0491 25.4161 30.8282 25.7106 30.6074C26.4468 30.0184 27.7351 29.5031 27.6983 28.7301C27.6983 27.8098 27.183 27.0368 26.2627 27.0368ZM35.6492 27C33.8456 27 32.9253 29.2454 32.9253 30.7914C32.9621 32.1166 34.0296 32.6687 35.2075 32.6687C36.9376 32.6687 37.7842 30.2393 37.7474 28.8037C37.7474 27.5521 36.8272 27 35.6492 27ZM35.4284 28.1043C35.6492 28.1043 35.9805 28.1411 36.2014 28.2515C36.2014 28.5092 36.2014 28.8037 36.2014 29.0613C36.1646 29.6135 36.091 31.638 35.2443 31.5644C35.0235 31.5644 34.729 31.4908 34.5081 31.3436C34.4713 31.1227 34.4713 30.9018 34.5081 30.681C34.5081 30.2393 34.6922 28.0675 35.4284 28.1043ZM21.183 27C19.7842 27 18.1278 27.8098 18.1646 29.0245C18.1646 29.5399 18.5327 29.9448 19.048 30.1288C18.6063 30.3129 18.1646 30.8282 18.1646 31.4908C18.1646 32.4479 18.9376 32.7055 19.8946 32.7055C21.9192 32.7055 22.9131 30.7178 22.8762 28.6196C22.8762 27.6994 22.6186 27 21.183 27ZM20.6677 28.0675C20.8517 28.0675 21.183 28.1411 21.3302 28.2147L21.183 29.4294C20.6677 29.5031 20.5572 29.5767 20.1523 29.7239C19.9683 29.5767 19.8578 29.2822 19.8578 28.9877C19.8578 28.4356 20.1523 28.0675 20.6677 28.0675ZM21.1462 30.1656C21.0358 30.9387 20.8149 31.7117 20.2259 31.7117C19.9683 31.7117 19.7474 31.5276 19.7474 31.2331C19.7474 30.8282 19.9683 30.4233 21.1462 30.1656ZM16.2873 27C15.4775 27 14.9989 27.5521 14.4468 28.1411C14.4836 27.8834 14.5204 27.6626 14.5204 27.4785C14.5204 27.1472 14.2996 27 13.8946 27C13.1953 27 12.5327 27.5153 12.1278 27.8466V28.2147H12.8272L12.4591 32.3006C12.864 32.4847 13.3425 32.6687 14.1155 32.6687C16.4345 32.6687 17.318 29.9448 17.2812 28.1411C17.2812 27.4417 16.9499 27 16.2873 27ZM15.367 28.5092C15.4407 28.5092 15.5511 28.5092 15.6247 28.546C15.6247 29.5031 15.4039 31.638 14.6308 31.638C14.41 31.638 14.2627 31.6012 14.1155 31.5644L14.41 28.6933C14.8517 28.546 15.1462 28.5092 15.367 28.5092ZM44.5572 27.1472H42.9744L40.729 32.411H40.6922L40.7658 31.454L40.729 28.6933C40.729 28.0675 40.8026 27.9202 41.2075 27.773L41.4652 27.6994C41.4652 27.5521 41.4652 27.2945 41.4652 27.1472H38.1891C38.1523 27.2577 38.1155 27.6258 38.1155 27.6994L38.6308 27.9202C38.7781 27.9939 38.8885 28.0675 38.9253 28.2883L39.1094 32.7791C39.1094 33.2209 38.9621 33.4417 38.7045 33.5153L38.3364 33.6258C38.3364 33.773 38.3364 34.1043 38.3732 34.2515H41.2443L42.5695 30.9755L43.1584 29.4294H43.2321L43.4161 30.9755L43.9315 34.2883H46.8762C46.9131 34.1779 46.9499 33.7362 46.9499 33.6626L46.3241 33.4785C46.14 33.4049 46.0296 33.2577 46.1032 33.0368L47.4284 28.7301C47.5388 28.4356 47.7229 28.1411 47.9805 27.9571L48.2014 27.773C48.2014 27.6258 48.1646 27.3681 48.1646 27.2209H45.5511C45.5143 27.3313 45.4775 27.6994 45.4775 27.8098L46.2873 28.1043C46.3977 28.1411 46.4345 28.2515 46.3977 28.4356L45.6615 31.3067L45.4039 32.5583H45.3302L44.5572 27.1472ZM31.048 27.0368C29.7965 27.0368 28.4345 27.6626 28.4713 29.0613C28.4713 29.6503 28.8762 30.0552 29.6124 30.2025C29.0603 30.4601 28.545 30.9018 28.545 31.5644C28.545 32.3374 29.4284 32.7055 30.2382 32.7055C31.0112 32.7055 31.7106 32.5215 31.9315 32.411C32.0051 32.1534 32.0051 31.4172 32.0051 31.1595C31.637 31.3067 31.1953 31.4908 30.6799 31.4908C30.3486 31.4908 30.091 31.454 29.8701 31.3067C29.8701 30.9755 30.864 30.4233 31.4161 30.2393L31.3057 29.5767C30.5695 29.5031 29.8701 29.4294 29.8333 28.8405C29.8333 28.4724 30.2014 28.2515 30.6799 28.2515C31.1216 28.2515 31.7842 28.546 32.1891 28.7669C32.3732 28.4356 32.6677 27.8466 32.7045 27.4417C32.2627 27.2577 31.4897 27.0368 31.048 27.0368Z" fill="white"/>
<path d="M51.3129 24.0368C52.6381 25.8405 53.3743 28.0123 53.3743 30.2577C53.3743 32.5031 52.6381 34.6748 51.3129 36.4785L50.1718 35.6319C51.3497 34.0859 51.9387 32.2454 51.9387 30.2945C51.9387 28.3436 51.3129 26.5031 50.1718 24.9571L51.3129 24.0368ZM8.72395 36.4417C7.39879 34.638 6.6626 32.4663 6.6626 30.2209C6.6626 27.9755 7.39879 25.8037 8.72395 24L9.86505 24.8466C8.68714 26.3926 8.09818 28.2331 8.09818 30.1841C8.09818 32.135 8.72395 33.9755 9.86505 35.5215L8.72395 36.4417Z" fill="white"/>
<defs>
<linearGradient id="paint0_linear" x1="32.6737" y1="60" x2="32.6737" y2="8.33394e-06" gradientUnits="userSpaceOnUse">
<stop stop-color="#5301FF"/>
<stop offset="1" stop-color="#5200FF"/>
</linearGradient>
</defs>
</svg>
