<svg width="26" height="26" viewBox="0 0 26 26" fill="none" xmlns="http://www.w3.org/2000/svg">
<circle cx="13" cy="13" r="13" fill="#00CC39"/>
<path d="M13 18.2002C15.1539 18.2002 16.9 16.4541 16.9 14.3002L9.10003 14.3002C9.10003 16.4541 10.8461 18.2002 13 18.2002Z" fill="#FEFEFE"/>
<path d="M7.79995 10.4006C7.79995 11.1186 7.21792 11.0506 6.49995 11.0506C5.78198 11.0506 5.19995 11.1186 5.19995 10.4006C5.19995 9.68262 5.78198 9.10059 6.49995 9.10059C7.21792 9.10059 7.79995 9.68262 7.79995 10.4006Z" fill="#FEFEFE"/>
<path d="M20.7999 10.4006C20.7999 11.1186 20.2179 11.0506 19.5 11.0506C18.782 11.0506 18.2 11.1186 18.2 10.4006C18.2 9.68262 18.782 9.10059 19.5 9.10059C20.2179 9.10059 20.7999 9.68262 20.7999 10.4006Z" fill="#FEFEFE"/>
<path fill-rule="evenodd" clip-rule="evenodd" d="M5.84991 10.3884C5.88919 10.3934 5.94245 10.3977 6.01403 10.3999C6.10669 10.4028 6.19807 10.4021 6.30629 10.4012C6.36489 10.4007 6.42844 10.4002 6.4998 10.4002C6.57117 10.4002 6.63472 10.4007 6.69332 10.4012C6.80154 10.4021 6.89292 10.4028 6.98558 10.3999C7.05716 10.3977 7.11042 10.3934 7.1497 10.3884C7.14341 10.0349 6.85485 9.7502 6.4998 9.7502C6.14476 9.7502 5.8562 10.0349 5.84991 10.3884ZM7.14408 10.4715L7.14438 10.4704L7.14408 10.4715ZM5.85553 10.4715L5.85523 10.4704L5.85553 10.4715ZM4.5498 10.4002C4.5498 9.32324 5.42285 8.4502 6.4998 8.4502C7.57676 8.4502 8.4498 9.32324 8.4498 10.4002C8.4498 10.663 8.39683 10.9377 8.23128 11.1758C8.06086 11.4208 7.82566 11.5491 7.61109 11.6154C7.40852 11.6781 7.19831 11.6939 7.02607 11.6993C6.90818 11.703 6.77359 11.7019 6.64997 11.701C6.5972 11.7006 6.54643 11.7002 6.4998 11.7002C6.45318 11.7002 6.40241 11.7006 6.34964 11.701C6.22602 11.7019 6.09143 11.703 5.97354 11.6993C5.8013 11.6939 5.59109 11.6781 5.38852 11.6154C5.17395 11.5491 4.93875 11.4208 4.76832 11.1758C4.60277 10.9377 4.5498 10.663 4.5498 10.4002ZM18.8499 10.3884C18.8892 10.3934 18.9424 10.3977 19.014 10.3999C19.1067 10.4028 19.1981 10.4021 19.3063 10.4012C19.3649 10.4007 19.4284 10.4002 19.4998 10.4002C19.5712 10.4002 19.6347 10.4007 19.6933 10.4012C19.8015 10.4021 19.8929 10.4028 19.9856 10.3999C20.0572 10.3977 20.1104 10.3934 20.1497 10.3884C20.1434 10.0349 19.8548 9.7502 19.4998 9.7502C19.1448 9.7502 18.8562 10.0349 18.8499 10.3884ZM20.1441 10.4715L20.1444 10.4704L20.1441 10.4715ZM18.8555 10.4715L18.8552 10.4704L18.8555 10.4715ZM17.5498 10.4002C17.5498 9.32324 18.4228 8.4502 19.4998 8.4502C20.5768 8.4502 21.4498 9.32324 21.4498 10.4002C21.4498 10.663 21.3968 10.9377 21.2313 11.1758C21.0609 11.4208 20.8257 11.5491 20.6111 11.6154C20.4085 11.6781 20.1983 11.6939 20.0261 11.6993C19.9082 11.703 19.7736 11.7019 19.65 11.701C19.5972 11.7006 19.5464 11.7002 19.4998 11.7002C19.4532 11.7002 19.4024 11.7006 19.3496 11.701C19.226 11.7019 19.0914 11.703 18.9735 11.6993C18.8013 11.6939 18.5911 11.6781 18.3885 11.6154C18.174 11.5491 17.9387 11.4208 17.7683 11.1758C17.6028 10.9377 17.5498 10.663 17.5498 10.4002Z" fill="#FEFEFE"/>
</svg>
