<svg width="27" height="26" viewBox="0 0 27 26" fill="none" xmlns="http://www.w3.org/2000/svg">
<circle cx="13.7144" cy="13" r="13" fill="#01A9B6"/>
<path d="M13.7143 18.2C15.8682 18.2 17.6143 16.4539 17.6143 14.3L9.81426 14.3C9.81426 16.4539 11.5603 18.2 13.7143 18.2Z" fill="#FEFEFE"/>
<path d="M8.51431 10.4003C8.51431 11.1183 7.93228 11.0503 7.21431 11.0503C6.49634 11.0503 5.91431 11.1183 5.91431 10.4003C5.91431 9.68237 6.49634 9.10034 7.21431 9.10034C7.93228 9.10034 8.51431 9.68237 8.51431 10.4003Z" fill="#FEFEFE"/>
<path d="M21.5143 10.4003C21.5143 11.1183 20.9323 11.0503 20.2143 11.0503C19.4963 11.0503 18.9143 11.1183 18.9143 10.4003C18.9143 9.68237 19.4963 9.10034 20.2143 9.10034C20.9323 9.10034 21.5143 9.68237 21.5143 10.4003Z" fill="#FEFEFE"/>
<path fill-rule="evenodd" clip-rule="evenodd" d="M6.56427 10.3882C6.60355 10.3932 6.6568 10.3974 6.72838 10.3997C6.82105 10.4026 6.91242 10.4018 7.02064 10.4009C7.07925 10.4005 7.14279 10.4 7.21416 10.4C7.28553 10.4 7.34907 10.4005 7.40768 10.4009C7.5159 10.4018 7.60727 10.4026 7.69994 10.3997C7.77152 10.3974 7.82477 10.3932 7.86406 10.3882C7.85776 10.0346 7.5692 9.74995 7.21416 9.74995C6.85912 9.74995 6.57056 10.0346 6.56427 10.3882ZM7.85843 10.4713L7.85873 10.4702L7.85843 10.4713ZM6.56989 10.4713L6.56959 10.4702L6.56989 10.4713ZM5.26416 10.4C5.26416 9.323 6.1372 8.44995 7.21416 8.44995C8.29112 8.44995 9.16416 9.323 9.16416 10.4C9.16416 10.6627 9.11119 10.9375 8.94564 11.1755C8.77522 11.4206 8.54001 11.5488 8.32544 11.6152C8.12288 11.6778 7.91266 11.6937 7.74042 11.699C7.62253 11.7027 7.48795 11.7017 7.36433 11.7007C7.31156 11.7003 7.26078 11.7 7.21416 11.7C7.16754 11.7 7.11676 11.7003 7.06399 11.7007C6.94037 11.7017 6.80579 11.7027 6.6879 11.699C6.51566 11.6937 6.30544 11.6778 6.10288 11.6152C5.88831 11.5488 5.6531 11.4206 5.48268 11.1755C5.31713 10.9375 5.26416 10.6627 5.26416 10.4ZM19.5643 10.3882C19.6035 10.3932 19.6568 10.3974 19.7284 10.3997C19.821 10.4026 19.9124 10.4018 20.0206 10.4009C20.0792 10.4005 20.1428 10.4 20.2142 10.4C20.2855 10.4 20.3491 10.4005 20.4077 10.4009C20.5159 10.4018 20.6073 10.4026 20.6999 10.3997C20.7715 10.3974 20.8248 10.3932 20.8641 10.3882C20.8578 10.0346 20.5692 9.74995 20.2142 9.74995C19.8591 9.74995 19.5706 10.0346 19.5643 10.3882ZM20.8584 10.4713L20.8587 10.4702L20.8584 10.4713ZM19.5699 10.4713L19.5696 10.4702L19.5699 10.4713ZM18.2642 10.4C18.2642 9.323 19.1372 8.44995 20.2142 8.44995C21.2911 8.44995 22.1642 9.323 22.1642 10.4C22.1642 10.6627 22.1112 10.9375 21.9456 11.1755C21.7752 11.4206 21.54 11.5488 21.3254 11.6152C21.1229 11.6778 20.9127 11.6937 20.7404 11.699C20.6225 11.7027 20.4879 11.7017 20.3643 11.7007C20.3116 11.7003 20.2608 11.7 20.2142 11.7C20.1675 11.7 20.1168 11.7003 20.064 11.7007C19.9404 11.7017 19.8058 11.7027 19.6879 11.699C19.5157 11.6937 19.3054 11.6778 19.1029 11.6152C18.8883 11.5488 18.6531 11.4206 18.4827 11.1755C18.3171 10.9375 18.2642 10.6627 18.2642 10.4Z" fill="#FEFEFE"/>
</svg>
