<svg width="26" height="26" viewBox="0 0 26 26" fill="none" xmlns="http://www.w3.org/2000/svg">
<path d="M26 13C26 20.1797 20.1797 26 13 26C5.8203 26 0 20.1797 0 13C0 5.8203 5.8203 0 13 0C20.1797 0 26 5.8203 26 13Z" fill="#E8244C"/>
<path d="M13 13C10.8461 13 9.10005 14.746 9.10005 16.9H16.9C16.9 14.746 15.154 13 13 13Z" fill="#FFFCFC"/>
<path d="M7.80005 10.4C7.80005 11.1179 7.21802 11.7 6.50005 11.7C5.78208 11.7 5.20005 11.1179 5.20005 10.4C5.20005 9.68198 5.78208 9.09995 6.50005 9.09995C7.21802 9.09995 7.80005 9.68198 7.80005 10.4Z" fill="#FFFCFC"/>
<path d="M20.8 10.4C20.8 11.1179 20.218 11.7 19.5 11.7C18.7821 11.7 18.2 11.1179 18.2 10.4C18.2 9.68198 18.7821 9.09995 19.5 9.09995C20.218 9.09995 20.8 9.68198 20.8 10.4Z" fill="#FFFCFC"/>
<path fill-rule="evenodd" clip-rule="evenodd" d="M6.50005 9.74995C6.14106 9.74995 5.85005 10.041 5.85005 10.4C5.85005 10.7589 6.14106 11.05 6.50005 11.05C6.85903 11.05 7.15005 10.7589 7.15005 10.4C7.15005 10.041 6.85903 9.74995 6.50005 9.74995ZM4.55005 10.4C4.55005 9.323 5.42309 8.44995 6.50005 8.44995C7.577 8.44995 8.45005 9.323 8.45005 10.4C8.45005 11.4769 7.577 12.35 6.50005 12.35C5.42309 12.35 4.55005 11.4769 4.55005 10.4ZM19.5 9.74995C19.1411 9.74995 18.85 10.041 18.85 10.4C18.85 10.7589 19.1411 11.05 19.5 11.05C19.859 11.05 20.15 10.7589 20.15 10.4C20.15 10.041 19.859 9.74995 19.5 9.74995ZM17.55 10.4C17.55 9.323 18.4231 8.44995 19.5 8.44995C20.577 8.44995 21.45 9.323 21.45 10.4C21.45 11.4769 20.577 12.35 19.5 12.35C18.4231 12.35 17.55 11.4769 17.55 10.4Z" fill="#FFFCFC"/>
</svg>
