<svg width="645" height="236" viewBox="0 0 645 236" fill="none" xmlns="http://www.w3.org/2000/svg">
<path d="M74.645 74.7946L61.7121 56.5862L74.645 38.938L61.8527 28.8533L33.7378 57.2865L61.8527 85.8597L74.645 74.7946ZM45.6867 77.736L30.3641 56.5862L45.6867 35.9966L31.9104 25.2116L0 57.2865L31.9104 89.5014L45.6867 77.736Z" fill="#5805FA"/>
<path d="M570.496 40.0585L583.147 58.267L570.496 75.9151L583.147 85.9998L611.262 57.5666L583.147 28.9934L570.496 40.0585ZM599.313 36.9771L614.636 58.1269L599.313 78.7164L613.09 89.5014L645 57.4266L613.09 25.2116L599.313 36.9771Z" fill="#5805FA"/>
<path d="M215.469 75.2148H205.347L199.865 17.368H209.424V0H175.264L150.101 54.6253L124.798 0H90.3574V17.368H99.9165L95.1369 75.2148H83.6098V92.4428H127.891V75.2148H119.456L121.143 50.2833L140.964 92.4428H157.692L176.951 49.8631L178.779 75.2148H169.36V92.4428H215.469V75.2148Z" fill="white"/>
<path d="M253.564 74.3744C245.973 74.3744 242.178 68.7718 242.178 57.4266C242.178 47.3419 245.692 42.2996 252.721 42.2996C260.171 42.2996 263.967 47.622 263.967 58.267C263.826 68.9119 260.453 74.3744 253.564 74.3744ZM253.846 22.2703C242.037 22.2703 232.619 25.4918 225.59 31.9348C218.702 38.3778 215.188 47.0618 215.188 58.267C215.188 69.3321 218.421 78.1562 225.028 84.5991C231.635 91.0421 240.632 94.2636 252.018 94.2636C263.967 94.2636 273.385 90.9021 280.414 84.319C287.302 77.5959 290.817 68.4917 290.817 56.8663C290.817 46.0813 287.583 37.6774 280.976 31.5146C274.369 25.3517 265.232 22.2703 253.846 22.2703Z" fill="white"/>
<path d="M293.427 27.0325V49.723H309.172V42.0194C310.858 41.7393 312.686 41.5992 314.654 41.5992C316.341 41.5992 317.887 42.0194 319.152 42.8598C320.558 43.7002 321.12 44.6806 321.12 46.0813C321.12 47.622 320.699 49.3028 319.855 51.1236H316.903H308.469V67.7913H319.574C323.51 67.7913 325.619 68.7718 325.619 70.5926C325.619 73.1138 323.088 74.5144 318.028 74.5144C311.561 74.5144 304.814 73.3939 297.785 71.1529L293.146 91.4623C302.283 93.4232 310.156 94.4037 316.763 94.4037C327.306 94.4037 335.459 92.4427 341.363 88.5209C347.127 84.5991 350.079 79.2766 350.079 72.2734C350.079 63.3093 347.127 57.4265 341.082 54.4852C343.893 51.4037 345.299 47.4819 345.299 42.8598C345.299 29.5536 336.724 22.8305 319.715 22.8305C310.156 22.8305 301.44 24.2312 293.427 27.0325Z" fill="white"/>
<path d="M419.944 24.0911H352.046V41.3191H363.011V75.2148H352.046V92.4428H400.685V75.2148H389.58V44.2605H401.107V53.7849H419.944V24.0911Z" fill="white"/>
<path d="M467.454 74.3745H462.253V65.6904H467.876C469.844 65.6904 471.25 65.9706 472.093 66.5308C472.937 67.0911 473.359 68.2116 473.359 69.6123C473.499 72.8337 471.391 74.3745 467.454 74.3745ZM462.253 50.4234V41.7394H464.221C467.736 41.7394 469.423 42.9999 469.423 45.6612C469.423 47.3419 469.141 49.0227 468.438 50.5634H466.892H462.253V50.4234ZM465.627 24.0912H426.969V41.3192H438.074V75.2148H426.969V92.4428H467.454C477.998 92.4428 485.87 90.762 490.93 87.2604C495.991 83.8989 498.521 78.2963 498.521 70.4526C498.521 62.4689 495.429 56.8663 489.243 53.925C491.914 50.7035 493.32 46.9217 493.32 42.4397C493.32 36.1368 491.071 31.5146 486.713 28.4332C482.355 25.3518 475.327 23.8111 465.627 23.8111V24.0912Z" fill="white"/>
<path d="M535.492 66.1106V72.2735C532.54 74.0943 529.729 74.9347 527.198 74.9347C524.527 74.9347 523.122 73.6741 523.122 71.293C523.122 70.0324 523.684 68.9119 524.949 68.2116C526.214 67.5113 527.479 66.951 528.885 66.6709C530.431 66.5308 532.54 66.2507 535.492 66.1106ZM572.463 75.2148H561.358V48.6025C561.358 31.2345 551.377 22.5504 531.416 22.5504C520.591 22.5504 510.611 24.2312 501.192 27.7328V27.8729L500.77 27.7328V50.9836H519.607V42.1595C522.278 41.8794 524.949 41.7393 527.479 41.7393C532.821 41.7393 535.352 43.8403 535.352 48.0422V52.1041C509.908 53.3647 497.256 60.508 497.256 73.6741C497.256 79.977 499.365 85.0194 503.582 88.8011C507.799 92.4428 513.281 94.2636 519.748 94.2636C525.652 94.2636 531.978 92.0226 538.725 87.4005C539.147 88.8011 539.709 90.4819 540.553 92.4428H572.323V75.2148H572.463Z" fill="white"/>
<path d="M302.761 150.003C300.586 150.003 299.063 148.901 298.193 146.805C297.323 144.71 297.214 142.064 297.758 139.087C298.737 134.014 301.238 131.478 305.045 131.478C307.112 131.478 309.178 132.25 311.354 133.794C311.245 135.338 310.918 137.102 310.483 139.307C309.613 143.056 308.634 145.813 307.438 147.467C306.133 149.121 304.61 150.003 302.761 150.003ZM299.933 121.113L300.151 122.436C301.673 121.995 303.087 121.775 304.284 121.775C309.396 121.775 311.789 125.193 311.462 132.14C309.396 130.817 307.22 130.045 304.936 130.045C300.477 130.045 297.649 132.912 296.453 138.756C295.691 142.505 295.8 145.593 297.105 147.908C298.302 150.224 300.259 151.437 302.979 151.437C305.154 151.437 307.003 150.555 308.417 148.68C309.831 146.805 311.027 143.828 312.006 139.638C312.768 135.779 313.094 132.471 312.985 129.714C312.876 126.847 312.006 124.642 310.592 122.988C309.178 121.334 307.003 120.562 304.392 120.562C302.979 120.341 301.565 120.672 299.933 121.113Z" fill="white"/>
<path d="M330.496 149.783H328.865C327.342 149.783 326.581 149.121 326.581 147.798C326.581 147.247 326.581 146.805 326.69 146.254C326.69 145.703 326.798 145.262 326.798 144.821C326.798 144.38 326.907 143.828 327.125 143.056L327.56 141.292C327.669 140.851 327.886 140.079 328.212 138.866C328.539 137.653 328.756 136.771 328.865 135.999C329.3 134.125 329.626 132.36 329.626 130.376V129.493V129.052H317.009L316.683 130.376H320.49L316.248 141.513C316.031 141.954 315.813 142.615 315.487 143.497C315.16 144.269 314.943 144.931 314.834 145.262L314.29 146.695C314.073 147.247 313.855 147.688 313.638 147.908C313.42 148.129 313.203 148.459 312.985 148.79C312.659 149.121 312.441 149.342 312.115 149.452C311.789 149.562 311.462 149.672 311.027 149.672C310.592 149.783 310.157 149.783 309.613 149.783L309.505 151.106H310.048C312.115 151.106 313.638 150.334 314.834 148.57C315.378 147.798 316.248 145.592 317.662 142.064L322.121 130.486H328.321C328.212 132.36 327.995 134.125 327.56 135.999C327.342 136.992 327.016 138.315 326.581 139.969L325.711 143.387C325.602 143.938 325.384 144.71 325.276 145.593C325.167 146.475 325.058 147.247 325.058 148.018C325.058 149.121 325.384 149.893 325.928 150.444C326.581 150.996 327.342 151.216 328.321 151.216C329.083 151.216 329.626 151.216 330.17 151.106L330.496 149.783Z" fill="white"/>
<path d="M348.552 149.783H346.92C345.398 149.783 344.636 149.121 344.636 147.798C344.636 147.026 345.506 143.056 347.138 135.999C347.573 133.794 347.899 132.03 347.899 130.706C347.899 130.376 347.899 130.045 347.899 129.824C347.899 129.493 347.899 129.383 347.899 129.383C346.268 129.052 344.528 128.832 342.896 128.832C338.437 128.832 335.935 130.486 335.391 133.904C334.956 136.661 336.479 138.866 339.851 140.41C339.851 140.52 339.742 140.52 339.742 140.63C339.742 140.741 339.633 140.741 339.633 140.851C339.633 140.851 339.524 140.961 339.524 141.072C337.349 145.041 335.826 147.467 334.847 148.46C333.977 149.452 332.563 149.893 330.605 149.893V151.106C331.258 151.106 331.911 151.106 332.346 150.996C333.977 150.775 335.282 149.893 336.479 148.349C337.24 147.357 338.98 144.49 341.591 139.638C337.893 138.315 336.261 136.44 336.805 133.794C337.24 131.258 339.198 130.045 342.896 130.045C344.419 130.045 345.615 130.155 346.703 130.376C346.703 131.919 346.485 133.684 345.942 135.779L344.854 140.52C344.419 142.174 344.201 143.387 343.984 144.049C343.875 144.821 343.657 145.482 343.549 146.144C343.44 146.806 343.331 147.357 343.331 147.688C343.331 148.79 343.657 149.562 344.201 150.114C344.854 150.665 345.615 150.885 346.594 150.885C347.355 150.885 347.899 150.885 348.443 150.775L348.552 149.783Z" fill="white"/>
<path d="M114.7 178.707H95.2358V186.453H100.186V212.362H95.2358L95.2358 220.108H115.838C127.61 220.108 133.496 215.901 133.496 207.354C133.496 202.546 131.556 199.274 127.811 197.404C130.352 195.668 131.623 192.997 131.623 189.458C131.623 185.719 130.219 183.048 127.543 181.312C124.801 179.575 120.52 178.707 114.7 178.707ZM112.226 194.466V187.922H115.102C116.506 187.922 117.51 188.189 118.179 188.724C118.781 189.258 119.115 190.059 119.115 191.194C119.115 193.398 117.911 194.466 115.503 194.466H112.226ZM116.306 210.893H112.226V202.88H115.971C117.71 202.88 118.981 203.214 119.784 203.815C120.587 204.482 120.988 205.484 120.988 206.886C120.988 209.557 119.383 210.893 116.306 210.893Z" fill="white"/>
<path d="M170.164 212.362H165.214V210.692V200.476C165.214 192.73 160.733 188.79 151.836 188.79C147.02 188.79 142.472 189.592 138.325 191.127V191.194L138.124 191.127V201.544H146.552V197.605C147.756 197.471 148.893 197.404 150.097 197.404C152.438 197.404 153.642 198.339 153.642 200.209V202.012C142.271 202.546 136.586 205.818 136.586 211.761C136.586 214.632 137.522 216.902 139.395 218.505C141.268 220.174 143.743 220.976 146.686 220.976C149.228 220.976 152.104 219.974 155.181 217.971C155.315 218.639 155.582 219.373 155.983 220.241H170.164V212.495V212.362ZM153.642 208.422V211.16C152.305 211.961 151.034 212.362 149.963 212.362C148.759 212.362 148.157 211.828 148.157 210.759C148.157 210.225 148.425 209.758 148.96 209.424C149.495 209.09 150.03 208.889 150.699 208.756C151.368 208.622 152.305 208.556 153.642 208.422Z" fill="white"/>
<path d="M197.745 218.972L195.872 210.559C193.33 211.36 191.123 211.694 189.384 211.694C185.237 211.694 183.163 209.223 183.163 204.215C183.163 199.808 185.103 197.538 189.116 197.538H189.25V202.212L197.678 202.212V190.259C194.802 189.325 191.792 188.79 188.648 188.79C183.163 188.79 178.882 190.193 175.939 192.997C172.996 195.802 171.525 199.942 171.525 205.35C171.525 215.634 176.809 220.709 187.511 220.709C191.123 220.709 194.534 220.174 197.745 218.972Z" fill="white"/>
<path d="M239.02 197.204V189.458H219.488V197.204H222.565L216.478 201.611V174.834H199.689V182.58H204.639V212.362H199.689V220.108L221.428 220.108V212.362H216.478V211.293L220.358 208.422L226.11 220.108H238.886L238.819 219.974V212.362H234.739L228.652 202.212L235.207 197.271V197.204H239.02Z" fill="white"/>
<path d="M270.526 218.305L268.586 210.359C264.974 211.761 261.697 212.429 258.62 212.429C255.008 212.429 252.8 210.96 251.998 208.021H270.793C271.128 205.951 271.329 203.881 271.329 201.811C271.329 197.671 270.125 194.399 267.717 192.129C265.309 189.859 261.964 188.724 257.549 188.724C252.265 188.724 248.252 190.193 245.443 192.997C242.633 195.802 241.229 199.875 241.229 205.15C241.229 210.225 242.566 214.098 245.376 216.836C248.185 219.573 252.198 220.909 257.416 220.909C261.897 220.909 266.245 220.041 270.526 218.305ZM261.63 201.01H251.998C252.533 198.206 254.205 196.803 257.014 196.803C260.091 196.803 261.63 198.206 261.63 201.01Z" fill="white"/>
<path d="M289.804 194.733L289.67 189.458H274.219V197.204H279.169V212.362H274.219V220.108H297.429V212.362H291.008V204.883C291.409 204.215 291.878 203.681 292.279 203.147C292.68 202.679 293.148 202.279 293.55 201.878C293.951 201.544 294.352 201.277 294.62 201.01C294.888 200.743 295.222 200.609 295.69 200.476C296.092 200.342 296.426 200.276 296.627 200.142C296.827 200.075 297.162 200.075 297.697 200.075C298.232 200.142 298.566 200.142 298.7 200.142C298.834 200.142 299.168 200.209 299.77 200.342C300.372 200.476 300.774 200.476 300.908 200.476L302.045 189.258C299.704 188.79 297.697 188.924 295.958 189.592C294.219 190.259 292.212 191.996 289.804 194.666V194.733Z" fill="white"/>
<path d="M365.494 186.453H370.444V178.707L348.505 178.707V186.453H353.454V194.399L339.608 194.399V186.453H344.558V178.707H322.619V186.453H327.569V212.362H322.619V220.108L344.558 220.108V212.362H339.608V203.881L353.454 203.881V212.362H348.505V220.108H370.444V212.362H365.494V186.453Z" fill="white"/>
<path d="M413.443 212.362H408.493V189.458H391.704V197.204H396.654V208.422C394.647 209.758 393.042 210.425 391.972 210.425C390.099 210.425 389.162 209.49 389.162 207.554V189.458H372.373V197.204H377.323V209.023C377.323 216.902 380.734 220.775 387.557 220.775C390.768 220.775 394.313 219.64 398.058 217.303L398.727 220.108H413.443V212.362Z" fill="white"/>
<path d="M446.946 189.658L444.338 181.245C440.726 182.447 437.114 185.051 433.368 189.057C432.097 188.79 430.759 188.657 429.355 188.657C425.141 188.657 421.796 189.725 419.321 191.795C416.779 193.865 415.575 196.603 415.575 200.008C415.575 203.548 416.98 206.285 419.856 208.222C418.184 210.425 417.381 212.562 417.381 214.632C417.381 216.368 417.716 217.837 418.519 218.906C415.776 221.376 414.438 223.981 414.438 226.652C414.438 232.928 419.455 236 429.622 236C435.174 236 439.388 235.065 442.264 233.195C445.073 231.326 446.545 228.655 446.545 225.116C446.545 222.979 446.077 221.109 445.14 219.64C444.204 218.171 443 217.103 441.595 216.502C440.124 215.901 438.585 215.433 436.98 215.033C435.308 214.699 433.769 214.499 432.365 214.365C430.893 214.298 429.756 214.098 428.819 213.831C427.883 213.564 427.415 213.096 427.415 212.495C427.415 211.961 427.615 211.36 428.017 210.692L429.555 210.759C433.702 210.759 437.047 209.824 439.589 207.955C442.063 206.085 443.334 203.548 443.334 200.342C443.334 197.07 442.264 194.399 440.124 192.329C441.528 191.395 443.803 190.46 446.946 189.658ZM429.488 196.67C431.763 196.67 432.967 197.738 432.967 199.808C432.967 201.678 431.763 202.613 429.421 202.613C427.147 202.613 426.077 201.678 426.077 199.741C426.077 198.807 426.345 198.005 426.947 197.471C427.549 196.937 428.418 196.67 429.488 196.67ZM429.957 228.254C425.809 228.254 423.803 227.453 423.803 225.783C423.803 224.715 424.405 223.647 425.743 222.578C426.411 222.712 427.281 222.912 428.418 223.046C429.488 223.179 430.358 223.313 431.027 223.446C431.629 223.58 432.298 223.713 433.033 223.914C433.702 224.181 434.237 224.448 434.572 224.782C434.839 225.183 435.04 225.583 435.04 226.117C435.04 226.919 434.639 227.52 433.836 227.787C433.033 228.054 431.763 228.187 429.957 228.187V228.254Z" fill="white"/>
<path d="M489.558 212.362H484.608V200.609C484.608 192.73 481.197 188.79 474.374 188.79C471.498 188.79 468.488 189.658 465.277 191.395V174.834H448.488V182.58H453.438V212.295H448.488V220.041H468.086V212.295H465.277V201.144C467.284 199.808 468.889 199.14 469.959 199.14C471.832 199.14 472.835 200.075 472.835 201.945V212.295H470.026V220.041H489.558V212.295V212.362Z" fill="white"/>
<path d="M520.445 218.305L518.505 210.359C514.893 211.761 511.615 212.429 508.538 212.429C504.926 212.429 502.719 210.96 501.916 208.021H520.712C521.047 205.951 521.247 203.881 521.247 201.811C521.247 197.671 520.043 194.399 517.635 192.129C515.227 189.859 511.883 188.724 507.468 188.724C502.184 188.724 498.171 190.193 495.361 192.997C492.552 195.802 491.147 199.875 491.147 205.15C491.147 210.225 492.485 214.098 495.294 216.836C498.104 219.573 502.117 220.909 507.334 220.909C511.816 220.909 516.164 220.041 520.445 218.305ZM511.548 201.01H501.916C502.451 198.206 504.124 196.803 506.933 196.803C510.01 196.803 511.548 198.206 511.548 201.01Z" fill="white"/>
<path d="M541.39 197.404V199.808L549.35 199.808V190.593C546.206 189.391 542.795 188.79 539.116 188.79C534.701 188.79 531.156 189.658 528.548 191.328C525.872 192.997 524.601 195.468 524.601 198.807C524.601 200.877 525.069 202.546 526.073 203.881C527.076 205.217 528.28 206.219 529.752 206.753C531.156 207.287 532.561 207.754 534.032 208.155C535.504 208.556 536.708 208.956 537.711 209.357C538.715 209.824 539.25 210.425 539.25 211.16C539.25 211.961 538.18 212.295 536.173 212.295C535.236 212.295 534.099 212.095 532.762 211.694V209.223H524.802V218.238L524.735 218.438C527.879 220.041 532.026 220.775 537.109 220.775C541.056 220.775 544.266 219.974 546.741 218.371C549.216 216.769 550.487 214.165 550.487 210.692C550.487 208.556 549.952 206.819 548.949 205.35C547.945 203.881 546.741 202.88 545.27 202.279C543.798 201.678 542.394 201.21 540.989 200.877C539.517 200.543 538.313 200.209 537.31 199.808C536.307 199.407 535.838 198.94 535.838 198.339C535.838 197.538 536.775 197.137 538.715 197.137C539.45 197.137 540.32 197.271 541.39 197.471V197.404Z" fill="white"/>
</svg>
