<svg width="743" height="266" viewBox="0 0 743 266" fill="none" xmlns="http://www.w3.org/2000/svg">
<path d="M349.128 168.933C346.732 168.933 345.054 167.718 344.095 165.409C343.137 163.1 343.017 160.184 343.616 156.903C344.694 151.313 347.451 148.518 351.645 148.518C353.921 148.518 356.198 149.369 358.595 151.07C358.475 152.771 358.115 154.715 357.636 157.146C356.677 161.277 355.599 164.315 354.281 166.138C352.843 167.961 351.165 168.933 349.128 168.933ZM346.013 137.095L346.252 138.553C347.93 138.067 349.488 137.824 350.806 137.824C356.438 137.824 359.074 141.591 358.714 149.247C356.438 147.789 354.041 146.938 351.525 146.938C346.612 146.938 343.496 150.098 342.178 156.538C341.339 160.67 341.459 164.072 342.897 166.624C344.215 169.176 346.372 170.513 349.368 170.513C351.764 170.513 353.801 169.541 355.359 167.475C356.917 165.409 358.235 162.128 359.314 157.51C360.152 153.257 360.512 149.612 360.392 146.574C360.272 143.414 359.314 140.984 357.756 139.161C356.198 137.338 353.801 136.488 350.926 136.488C349.368 136.245 347.81 136.609 346.013 137.095Z" fill="white"/>
<path d="M380.88 168.859H379.024C377.292 168.859 376.426 168.095 376.426 166.568C376.426 165.932 376.426 165.423 376.55 164.787C376.55 164.15 376.674 163.641 376.674 163.132C376.674 162.623 376.797 161.987 377.045 161.096L377.54 159.06C377.663 158.551 377.911 157.661 378.282 156.261C378.653 154.861 378.901 153.843 379.024 152.953C379.519 150.789 379.89 148.753 379.89 146.463V144.936H365.54L365.169 146.463H369.499L364.674 159.315C364.426 159.824 364.179 160.587 363.808 161.605C363.437 162.496 363.189 163.26 363.066 163.641L362.447 165.296C362.2 165.932 361.952 166.441 361.705 166.695C361.457 166.95 361.21 167.332 360.962 167.713C360.591 168.095 360.344 168.35 359.973 168.477C359.602 168.604 359.23 168.731 358.736 168.731C358.241 168.859 357.746 168.859 357.127 168.859L357.004 170.386H357.622C359.973 170.386 361.705 169.495 363.066 167.459C363.684 166.568 364.674 164.023 366.282 159.951L371.354 146.59H378.406C378.282 148.753 378.035 150.789 377.54 152.953C377.292 154.098 376.921 155.625 376.426 157.533L375.437 161.478C375.313 162.114 375.066 163.005 374.942 164.023C374.818 165.041 374.694 165.932 374.694 166.823C374.694 168.095 375.066 168.986 375.684 169.622C376.426 170.258 377.292 170.513 378.406 170.513C379.272 170.513 379.89 170.513 380.509 170.386L380.88 168.859Z" fill="white"/>
<path d="M401.345 168.993H399.485C397.748 168.993 396.88 168.234 396.88 166.714C396.88 165.828 397.872 161.27 399.733 153.166C400.229 150.634 400.601 148.608 400.601 147.088C400.601 146.709 400.601 146.329 400.601 146.075C400.601 145.696 400.601 145.569 400.601 145.569C398.741 145.189 396.756 144.936 394.896 144.936C389.81 144.936 386.958 146.835 386.337 150.76C385.841 153.926 387.578 156.458 391.423 158.231C391.423 158.357 391.299 158.357 391.299 158.484C391.299 158.611 391.175 158.611 391.175 158.737C391.175 158.737 391.051 158.864 391.051 158.991C388.57 163.549 386.834 166.334 385.717 167.474C384.725 168.614 383.113 169.12 380.88 169.12V170.513C381.624 170.513 382.368 170.513 382.865 170.386C384.725 170.133 386.213 169.12 387.578 167.347C388.446 166.208 390.43 162.916 393.407 157.344C389.19 155.825 387.33 153.673 387.95 150.634C388.446 147.722 390.679 146.329 394.896 146.329C396.632 146.329 397.997 146.455 399.237 146.709C399.237 148.481 398.989 150.507 398.369 152.913L397.128 158.357C396.632 160.257 396.384 161.65 396.136 162.409C396.012 163.296 395.764 164.055 395.64 164.815C395.516 165.575 395.392 166.208 395.392 166.588C395.392 167.854 395.764 168.74 396.384 169.373C397.128 170.006 397.996 170.26 399.113 170.26C399.981 170.26 400.601 170.26 401.221 170.133L401.345 168.993Z" fill="white"/>
<path d="M152.064 202.114H130.178V210.751H135.744V239.641H130.178V248.279H153.343C166.579 248.279 173.198 243.588 173.198 234.057C173.198 228.696 171.017 225.047 166.805 222.962C169.663 221.026 171.092 218.048 171.092 214.102C171.092 209.932 169.512 206.953 166.504 205.017C163.421 203.082 158.607 202.114 152.064 202.114ZM149.281 219.686V212.389H152.515C154.095 212.389 155.223 212.687 155.975 213.283C156.652 213.878 157.028 214.772 157.028 216.038C157.028 218.495 155.674 219.686 152.967 219.686H149.281ZM153.869 238.003H149.281V229.068H153.493C155.448 229.068 156.877 229.44 157.78 230.11C158.682 230.855 159.134 231.972 159.134 233.536C159.134 236.514 157.329 238.003 153.869 238.003Z" fill="white"/>
<path d="M214.426 239.641H208.861V226.387C208.861 217.75 203.822 213.357 193.819 213.357C188.404 213.357 183.29 214.25 178.627 215.963V216.038L178.401 215.963V227.579H187.878V223.186C189.231 223.037 190.51 222.962 191.864 222.962C194.496 222.962 195.85 224.005 195.85 226.09V228.1C183.064 228.696 176.671 232.344 176.671 238.971C176.671 242.173 177.724 244.705 179.83 246.492C181.936 248.353 184.719 249.247 188.028 249.247C190.886 249.247 194.12 248.13 197.579 245.896C197.73 246.64 198.031 247.46 198.482 248.427H214.426V239.641ZM195.85 235.248V238.301C194.345 239.195 192.917 239.641 191.713 239.641C190.359 239.641 189.683 239.046 189.683 237.854C189.683 237.259 189.983 236.737 190.585 236.365C191.187 235.993 191.788 235.769 192.54 235.62C193.293 235.472 194.345 235.397 195.85 235.248Z" fill="white"/>
<path d="M262.613 222.739V214.102H240.652V222.739H244.111L237.267 227.653V197.795H218.39V206.432H223.955V239.641H218.39V248.279H242.833V239.641H237.267V238.45L241.629 235.248L248.097 248.279H262.462L262.387 248.13V239.641H257.799L250.955 228.323L258.326 222.813V222.739H262.613Z" fill="white"/>
<path d="M298.038 246.268L295.857 237.407C291.795 238.971 288.11 239.716 284.651 239.716C280.589 239.716 278.107 238.078 277.205 234.801H298.339C298.715 232.493 298.94 230.185 298.94 227.877C298.94 223.26 297.586 219.612 294.879 217.08C292.171 214.548 288.411 213.283 283.447 213.283C277.506 213.283 272.993 214.921 269.834 218.048C266.676 221.175 265.096 225.717 265.096 231.6C265.096 237.259 266.6 241.577 269.759 244.63C272.918 247.683 277.43 249.172 283.297 249.172C288.336 249.172 293.224 248.204 298.038 246.268ZM288.035 226.983H277.205C277.807 223.856 279.687 222.292 282.846 222.292C286.305 222.292 288.035 223.856 288.035 226.983Z" fill="white"/>
<path d="M319.714 219.984L319.563 214.102H302.19V222.739H307.755V239.641H302.19V248.279H328.287V239.641H321.067V231.302C321.519 230.557 322.045 229.962 322.496 229.366C322.948 228.845 323.474 228.398 323.925 227.951C324.377 227.579 324.828 227.281 325.129 226.983C325.43 226.685 325.806 226.536 326.332 226.387C326.783 226.239 327.159 226.164 327.385 226.015C327.611 225.941 327.987 225.941 328.588 225.941C329.19 226.015 329.566 226.015 329.716 226.015C329.867 226.015 330.243 226.09 330.92 226.239C331.597 226.387 332.048 226.387 332.198 226.387L333.477 213.878C330.845 213.357 328.588 213.506 326.633 214.25C324.677 214.995 322.421 216.931 319.714 219.909V219.984Z" fill="white"/>
<path d="M404.819 210.751H410.384V202.114H385.716V210.751H391.281V219.612H375.713V210.751H381.279V202.114H356.61V210.751H362.175V239.641H356.61V248.279H381.279V239.641H375.713V230.185H391.281V239.641H385.716V248.279H410.384V239.641H404.819V210.751Z" fill="white"/>
<path d="M458.731 239.641H453.166V214.102H434.288V222.739H439.854V235.248C437.598 236.737 435.793 237.482 434.589 237.482C432.483 237.482 431.43 236.439 431.43 234.28V214.102H412.553V222.739H418.118V235.918C418.118 244.705 421.954 249.023 429.625 249.023C433.235 249.023 437.221 247.757 441.433 245.151L442.185 248.279H458.731V239.641Z" fill="white"/>
<path d="M496.402 214.325L493.469 204.943C489.408 206.283 485.346 209.187 481.135 213.655C479.706 213.357 478.202 213.208 476.622 213.208C471.884 213.208 468.124 214.399 465.341 216.708C462.483 219.016 461.129 222.069 461.129 225.866C461.129 229.813 462.708 232.865 465.942 235.025C464.062 237.482 463.16 239.865 463.16 242.173C463.16 244.109 463.536 245.747 464.438 246.938C461.355 249.693 459.851 252.597 459.851 255.576C459.851 262.575 465.491 266 476.923 266C483.165 266 487.903 264.958 491.137 262.873C494.296 260.788 495.951 257.809 495.951 253.863C495.951 251.48 495.424 249.395 494.371 247.757C493.318 246.119 491.965 244.928 490.385 244.258C488.731 243.588 487.001 243.066 485.196 242.62C483.316 242.247 481.586 242.024 480.006 241.875C478.352 241.801 477.073 241.577 476.02 241.279C474.967 240.982 474.441 240.46 474.441 239.79C474.441 239.195 474.667 238.524 475.118 237.78L476.848 237.854C481.511 237.854 485.271 236.812 488.129 234.727C490.912 232.642 492.341 229.813 492.341 226.239C492.341 222.59 491.137 219.612 488.731 217.303C490.31 216.261 492.867 215.218 496.402 214.325ZM476.773 222.143C479.33 222.143 480.683 223.335 480.683 225.643C480.683 227.728 479.33 228.77 476.697 228.77C474.14 228.77 472.937 227.728 472.937 225.568C472.937 224.526 473.238 223.632 473.915 223.037C474.591 222.441 475.569 222.143 476.773 222.143ZM477.299 257.363C472.636 257.363 470.38 256.469 470.38 254.608C470.38 253.416 471.057 252.225 472.561 251.034C473.313 251.182 474.291 251.406 475.569 251.555C476.772 251.704 477.75 251.853 478.502 252.002C479.179 252.15 479.931 252.299 480.759 252.523C481.511 252.821 482.112 253.118 482.488 253.491C482.789 253.938 483.015 254.384 483.015 254.98C483.015 255.873 482.564 256.544 481.661 256.841C480.759 257.139 479.33 257.288 477.299 257.288V257.363Z" fill="white"/>
<path d="M544.314 239.641H538.748V226.536C538.748 217.75 534.912 213.357 527.241 213.357C524.007 213.357 520.623 214.325 517.013 216.261V197.795H498.135V206.432H503.701V239.567H498.135V248.204H520.172V239.567H517.013V227.132C519.269 225.643 521.074 224.898 522.277 224.898C524.383 224.898 525.511 225.941 525.511 228.026V239.567H522.353V248.204H544.314V239.567V239.641Z" fill="white"/>
<path d="M579.042 246.268L576.861 237.407C572.8 238.971 569.115 239.716 565.655 239.716C561.594 239.716 559.112 238.078 558.21 234.801H579.343C579.719 232.493 579.945 230.185 579.945 227.877C579.945 223.26 578.591 219.612 575.884 217.08C573.176 214.548 569.416 213.283 564.452 213.283C558.51 213.283 553.998 214.921 550.839 218.048C547.68 221.175 546.101 225.717 546.101 231.6C546.101 237.259 547.605 241.577 550.764 244.63C553.923 247.683 558.435 249.172 564.301 249.172C569.34 249.172 574.229 248.204 579.042 246.268ZM569.04 226.983H558.21C558.811 223.856 560.691 222.292 563.85 222.292C567.31 222.292 569.04 223.856 569.04 226.983Z" fill="white"/>
<path d="M602.593 222.962V225.643H611.543V215.367C608.008 214.027 604.173 213.357 600.036 213.357C595.072 213.357 591.086 214.325 588.153 216.186C585.145 218.048 583.716 220.803 583.716 224.526C583.716 226.834 584.242 228.696 585.37 230.185C586.499 231.674 587.852 232.791 589.507 233.387C591.086 233.982 592.666 234.504 594.32 234.95C595.975 235.397 597.329 235.844 598.457 236.291C599.585 236.812 600.187 237.482 600.187 238.301C600.187 239.195 598.983 239.567 596.727 239.567C595.674 239.567 594.396 239.343 592.891 238.897V236.142H583.941V246.194L583.866 246.417C587.401 248.204 592.064 249.023 597.78 249.023C602.217 249.023 605.827 248.13 608.61 246.343C611.393 244.556 612.822 241.652 612.822 237.78C612.822 235.397 612.22 233.461 611.092 231.823C609.964 230.185 608.61 229.068 606.955 228.398C605.301 227.728 603.721 227.206 602.142 226.834C600.487 226.462 599.134 226.09 598.006 225.643C596.877 225.196 596.351 224.675 596.351 224.005C596.351 223.111 597.404 222.664 599.585 222.664C600.412 222.664 601.39 222.813 602.593 223.037V222.962Z" fill="white"/>
<path d="M85.2727 84.22L70.4985 63.9367L85.2727 44.2776L70.6591 33.0438L38.5413 64.7169L70.6591 96.5459L85.2727 84.22ZM52.1914 87.4965L34.6872 63.9367L52.1914 41.0011L36.4537 28.9872L0 64.7169L36.4537 100.603L52.1914 87.4965Z" fill="white"/>
<path d="M657.727 45.5258L672.208 65.809L657.727 85.4682L672.208 96.7019L704.386 65.0289L672.208 33.1999L657.727 45.5258ZM690.71 42.0933L708.247 65.653L690.71 88.5887L706.478 100.603L743 64.8729L706.478 28.9872L690.71 42.0933Z" fill="white"/>
<path d="M243.88 84.6286H232.491L226.322 19.5418H237.078V0H198.64L170.325 61.4621L141.853 0H103.098V19.5418H113.854L108.476 84.6286H95.5054V104.013H145.333V84.6286H135.842L137.74 56.5767L160.044 104.013H178.867L200.538 56.1039L202.594 84.6286H191.996V104.013H243.88V84.6286Z" fill="white"/>
<path d="M287.15 83.5778C278.591 83.5778 274.312 77.3412 274.312 64.7119C274.312 53.4859 278.274 47.873 286.199 47.873C294.6 47.873 298.879 53.7978 298.879 65.6474C298.721 77.4971 294.917 83.5778 287.15 83.5778ZM287.467 25.5769C274.153 25.5769 263.534 29.163 255.609 36.3352C247.842 43.5073 243.88 53.1741 243.88 65.6474C243.88 77.9648 247.525 87.7876 254.975 94.9597C262.424 102.132 272.568 105.718 285.407 105.718C298.879 105.718 309.499 101.976 317.424 94.6479C325.19 87.1639 329.153 77.0293 329.153 64.0883C329.153 52.0827 325.507 42.7277 318.058 35.8674C310.608 29.0071 300.306 25.5769 287.467 25.5769Z" fill="white"/>
<path d="M331.178 30.2819V55.6886H349.1V47.0629C351.02 46.7492 353.1 46.5924 355.341 46.5924C357.261 46.5924 359.021 47.0629 360.461 48.0039C362.061 48.9449 362.702 50.0427 362.702 51.611C362.702 53.3361 362.221 55.2181 361.261 57.2569H348.3V75.9199H360.941C365.422 75.9199 367.822 77.0177 367.822 79.0565C367.822 81.8795 364.942 83.4478 359.181 83.4478C351.82 83.4478 344.139 82.1932 336.139 79.6839L330.858 102.424C341.259 104.62 350.22 105.718 357.741 105.718C369.742 105.718 379.023 103.522 385.744 99.131C392.305 94.7397 395.665 88.7801 395.665 80.9385C395.665 70.9013 392.305 64.3144 385.424 61.0209C388.624 57.5706 390.225 53.1793 390.225 48.0039C390.225 33.1048 380.464 25.5769 361.101 25.5769C350.22 25.5769 340.299 27.1452 331.178 30.2819Z" fill="white"/>
<path d="M474.116 27.282H397.371V46.622H409.764V84.6729H397.371V104.013H452.348V84.6729H439.795V49.9239H452.824V60.6159H474.116V27.282Z" fill="white"/>
<path d="M527.997 83.8123H522.17V74.1035H528.469C530.674 74.1035 532.249 74.4167 533.194 75.043C534.139 75.6694 534.611 76.9222 534.611 78.4881C534.769 82.0898 532.406 83.8123 527.997 83.8123ZM522.17 47.326H524.375C528.312 47.326 530.202 48.7354 530.202 51.7106C530.202 53.5898 529.887 55.4689 529.099 57.1914H522.17V47.326ZM525.95 27.5952H482.643V46.8562H495.084V84.7518H482.643V104.013H527.997C539.808 104.013 548.627 102.134 554.296 98.2189C559.965 94.4606 562.8 88.1969 562.8 79.4277C562.8 70.5018 559.335 64.2381 552.406 60.9496C555.398 57.348 556.973 53.12 556.973 48.109C556.973 41.0623 554.453 35.8947 549.571 32.4496C544.69 29.0046 536.816 27.282 525.95 27.282V27.5952Z" fill="white"/>
<path d="M608.879 74.2563V81.1435C605.532 83.1783 602.344 84.1174 599.475 84.1174C596.447 84.1174 594.853 82.7087 594.853 80.0478C594.853 78.639 595.491 77.3868 596.925 76.6042C598.36 75.8216 599.794 75.1955 601.388 74.8824C603.141 74.7259 605.532 74.4129 608.879 74.2563ZM650.798 84.4305H638.207V54.6907C638.207 35.2815 626.89 25.5769 604.257 25.5769C591.984 25.5769 580.668 27.4552 569.989 31.3684V31.5249L569.51 31.3684V57.3516H590.868V47.4905C593.897 47.1774 596.925 47.0209 599.794 47.0209C605.851 47.0209 608.72 49.3688 608.72 54.0645V58.6038C579.871 60.0125 565.526 67.9953 565.526 82.7087C565.526 89.7524 567.916 95.3873 572.698 99.6134C577.48 103.683 583.696 105.718 591.028 105.718C597.722 105.718 604.895 103.214 612.545 98.0482C613.023 99.6134 613.661 101.492 614.617 103.683H650.639V84.4305H650.798Z" fill="white"/>
</svg>
