<svg width="503" height="180" viewBox="0 0 503 180" fill="none" xmlns="http://www.w3.org/2000/svg">
<path d="M236.355 114.316C234.732 114.316 233.596 113.493 232.947 111.931C232.298 110.369 232.217 108.395 232.623 106.175C233.353 102.392 235.219 100.501 238.058 100.501C239.599 100.501 241.141 101.076 242.763 102.228C242.682 103.379 242.439 104.695 242.114 106.339C241.465 109.135 240.735 111.191 239.843 112.424C238.869 113.658 237.734 114.316 236.355 114.316ZM234.245 92.7712L234.408 93.758C235.543 93.4291 236.598 93.2646 237.49 93.2646C241.303 93.2646 243.088 95.8137 242.844 100.994C241.303 100.008 239.681 99.4319 237.977 99.4319C234.651 99.4319 232.542 101.57 231.65 105.928C231.082 108.724 231.163 111.026 232.136 112.753C233.029 114.48 234.489 115.385 236.517 115.385C238.139 115.385 239.518 114.727 240.573 113.329C241.628 111.931 242.52 109.711 243.25 106.586C243.818 103.708 244.061 101.241 243.98 99.1852C243.899 97.0472 243.25 95.4026 242.195 94.1691C241.141 92.9357 239.518 92.3601 237.571 92.3601C236.517 92.1956 235.462 92.4423 234.245 92.7712Z" fill="white"/>
<path d="M257.85 114.265H256.594C255.421 114.265 254.835 113.749 254.835 112.715C254.835 112.285 254.835 111.94 254.919 111.51C254.919 111.079 255.003 110.735 255.003 110.39C255.003 110.046 255.086 109.615 255.254 109.013L255.589 107.635C255.673 107.29 255.84 106.688 256.091 105.741C256.343 104.793 256.51 104.104 256.594 103.502C256.929 102.038 257.18 100.66 257.18 99.1102V98.0769H247.465L247.214 99.1102H250.145L246.879 107.807C246.711 108.152 246.544 108.668 246.292 109.357C246.041 109.96 245.874 110.476 245.79 110.735L245.371 111.854C245.204 112.285 245.036 112.629 244.869 112.801C244.701 112.974 244.534 113.232 244.366 113.49C244.115 113.749 243.947 113.921 243.696 114.007C243.445 114.093 243.194 114.179 242.859 114.179C242.524 114.265 242.189 114.265 241.77 114.265L241.686 115.299H242.105C243.696 115.299 244.869 114.696 245.79 113.318C246.209 112.715 246.879 110.993 247.967 108.238L251.401 99.1963H256.175C256.091 100.66 255.924 102.038 255.589 103.502C255.421 104.277 255.17 105.31 254.835 106.602L254.165 109.271C254.081 109.702 253.914 110.304 253.83 110.993C253.746 111.682 253.663 112.285 253.663 112.887C253.663 113.749 253.914 114.351 254.333 114.782C254.835 115.212 255.421 115.385 256.175 115.385C256.761 115.385 257.18 115.385 257.599 115.299L257.85 114.265Z" fill="white"/>
<path d="M271.705 114.356H270.445C269.27 114.356 268.682 113.842 268.682 112.814C268.682 112.214 269.354 109.13 270.613 103.646C270.949 101.933 271.201 100.562 271.201 99.5335C271.201 99.2765 271.201 99.0194 271.201 98.8481C271.201 98.591 271.201 98.5053 271.201 98.5053C269.942 98.2483 268.598 98.0769 267.339 98.0769C263.896 98.0769 261.965 99.3622 261.545 102.018C261.209 104.16 262.384 105.874 264.987 107.074C264.987 107.159 264.903 107.159 264.903 107.245C264.903 107.331 264.819 107.331 264.819 107.416C264.819 107.416 264.736 107.502 264.736 107.588C263.056 110.672 261.881 112.557 261.125 113.328C260.453 114.099 259.362 114.442 257.85 114.442V115.385C258.354 115.385 258.858 115.385 259.194 115.299C260.453 115.128 261.461 114.442 262.384 113.243C262.972 112.471 264.316 110.244 266.331 106.474C263.476 105.446 262.216 103.989 262.636 101.933C262.972 99.9619 264.484 99.0194 267.339 99.0194C268.514 99.0194 269.438 99.1051 270.277 99.2765C270.277 100.476 270.109 101.847 269.69 103.475L268.85 107.159C268.514 108.444 268.346 109.387 268.178 109.901C268.094 110.501 267.926 111.015 267.842 111.529C267.758 112.043 267.674 112.471 267.674 112.728C267.674 113.585 267.926 114.185 268.346 114.613C268.85 115.042 269.438 115.213 270.193 115.213C270.781 115.213 271.201 115.213 271.621 115.128L271.705 114.356Z" fill="white"/>
<path d="M102.945 136.769H88.1288V142.613H91.8965V162.163H88.1288V168.008H103.811C112.772 168.008 117.252 164.834 117.252 158.384C117.252 154.756 115.776 152.288 112.924 150.877C114.859 149.567 115.827 147.551 115.827 144.881C115.827 142.059 114.757 140.044 112.721 138.734C110.633 137.424 107.375 136.769 102.945 136.769ZM101.061 148.66V143.722H103.251C104.32 143.722 105.084 143.923 105.593 144.327C106.051 144.73 106.306 145.334 106.306 146.191C106.306 147.854 105.389 148.66 103.556 148.66H101.061ZM104.167 161.055H101.061V155.008H103.913C105.236 155.008 106.204 155.26 106.815 155.714C107.426 156.218 107.731 156.973 107.731 158.032C107.731 160.047 106.509 161.055 104.167 161.055Z" fill="white"/>
<path d="M145.163 162.163H141.396V153.195C141.396 147.35 137.984 144.377 131.213 144.377C127.547 144.377 124.084 144.982 120.928 146.14V146.191L120.775 146.14V154.001H127.19V151.028C128.107 150.927 128.972 150.877 129.889 150.877C131.671 150.877 132.587 151.582 132.587 152.993V154.353C123.932 154.756 119.604 157.225 119.604 161.71C119.604 163.876 120.317 165.59 121.742 166.799C123.168 168.058 125.052 168.663 127.292 168.663C129.227 168.663 131.416 167.907 133.758 166.396C133.86 166.9 134.064 167.454 134.369 168.109H145.163V162.163ZM132.587 159.19V161.256C131.569 161.861 130.602 162.163 129.787 162.163C128.871 162.163 128.412 161.76 128.412 160.954C128.412 160.551 128.616 160.198 129.023 159.946C129.431 159.694 129.838 159.543 130.347 159.442C130.856 159.342 131.569 159.291 132.587 159.19Z" fill="white"/>
<path d="M177.785 150.726V144.881H162.918V150.726H165.26L160.626 154.051V133.846H147.847V139.691H151.614V162.163H147.847V168.008H164.394V162.163H160.626V161.357L163.579 159.19L167.958 168.008H177.683L177.632 167.907V162.163H174.526L169.893 154.505L174.883 150.776V150.726H177.785Z" fill="white"/>
<path d="M201.767 166.648L200.291 160.652C197.541 161.71 195.046 162.214 192.704 162.214C189.955 162.214 188.275 161.105 187.664 158.888H201.971C202.225 157.326 202.378 155.764 202.378 154.202C202.378 151.078 201.462 148.609 199.629 146.896C197.796 145.183 195.25 144.327 191.89 144.327C187.867 144.327 184.812 145.435 182.674 147.551C180.535 149.667 179.466 152.741 179.466 156.722C179.466 160.551 180.485 163.473 182.623 165.539C184.761 167.605 187.816 168.613 191.788 168.613C195.199 168.613 198.509 167.958 201.767 166.648ZM194.995 153.598H187.664C188.071 151.481 189.344 150.423 191.482 150.423C193.824 150.423 194.995 151.481 194.995 153.598Z" fill="white"/>
<path d="M216.441 148.861L216.34 144.881H204.578V150.726H208.346V162.163H204.578V168.008H222.246V162.163H217.358V156.52C217.663 156.016 218.02 155.613 218.325 155.21C218.631 154.857 218.987 154.555 219.293 154.253C219.598 154.001 219.904 153.799 220.107 153.598C220.311 153.396 220.566 153.295 220.922 153.195C221.227 153.094 221.482 153.043 221.635 152.943C221.788 152.892 222.042 152.892 222.449 152.892C222.857 152.943 223.111 152.943 223.213 152.943C223.315 152.943 223.57 152.993 224.028 153.094C224.486 153.195 224.792 153.195 224.893 153.195L225.759 144.73C223.977 144.377 222.449 144.478 221.126 144.982C219.802 145.485 218.274 146.795 216.441 148.811V148.861Z" fill="white"/>
<path d="M274.056 142.613H277.824V136.769H261.124V142.613H264.892V148.609H254.352V142.613H258.12V136.769H241.42V142.613H245.187V162.163H241.42V168.008H258.12V162.163H254.352V155.764H264.892V162.163H261.124V168.008H277.824V162.163H274.056V142.613Z" fill="white"/>
<path d="M310.554 162.163H306.787V144.881H294.007V150.726H297.775V159.19C296.247 160.198 295.025 160.702 294.21 160.702C292.785 160.702 292.072 159.997 292.072 158.535V144.881H279.292V150.726H283.06V159.644C283.06 165.59 285.657 168.512 290.85 168.512C293.294 168.512 295.992 167.655 298.844 165.892L299.353 168.008H310.554V162.163Z" fill="white"/>
<path d="M336.057 145.032L334.071 138.683C331.322 139.59 328.572 141.555 325.721 144.578C324.754 144.377 323.735 144.276 322.666 144.276C319.458 144.276 316.913 145.082 315.029 146.644C313.094 148.206 312.178 150.272 312.178 152.842C312.178 155.512 313.247 157.578 315.436 159.039C314.163 160.702 313.552 162.314 313.552 163.876C313.552 165.186 313.807 166.295 314.418 167.101C312.33 168.965 311.312 170.93 311.312 172.946C311.312 177.682 315.131 180 322.87 180C327.096 180 330.303 179.295 332.493 177.884C334.631 176.473 335.751 174.458 335.751 171.787C335.751 170.175 335.395 168.764 334.682 167.655C333.969 166.547 333.053 165.741 331.984 165.287C330.863 164.834 329.692 164.481 328.47 164.179C327.198 163.927 326.026 163.776 324.957 163.675C323.837 163.624 322.972 163.473 322.259 163.272C321.546 163.07 321.19 162.718 321.19 162.264C321.19 161.861 321.342 161.407 321.648 160.904L322.819 160.954C325.976 160.954 328.521 160.249 330.456 158.838C332.34 157.427 333.307 155.512 333.307 153.094C333.307 150.625 332.493 148.609 330.863 147.047C331.933 146.342 333.664 145.637 336.057 145.032ZM322.768 150.322C324.499 150.322 325.416 151.129 325.416 152.691C325.416 154.101 324.499 154.807 322.717 154.807C320.986 154.807 320.171 154.101 320.171 152.64C320.171 151.935 320.375 151.33 320.833 150.927C321.291 150.524 321.953 150.322 322.768 150.322ZM323.124 174.155C319.968 174.155 318.44 173.551 318.44 172.291C318.44 171.485 318.898 170.679 319.917 169.872C320.426 169.973 321.088 170.124 321.953 170.225C322.768 170.326 323.43 170.427 323.939 170.527C324.397 170.628 324.906 170.729 325.466 170.88C325.976 171.082 326.383 171.283 326.637 171.535C326.841 171.837 326.994 172.14 326.994 172.543C326.994 173.147 326.688 173.601 326.077 173.802C325.466 174.004 324.499 174.105 323.124 174.105V174.155Z" fill="white"/>
<path d="M368.492 162.163H364.724V153.295C364.724 147.35 362.128 144.377 356.934 144.377C354.745 144.377 352.454 145.032 350.01 146.342V133.846H337.23V139.691H340.998V162.113H337.23V167.958H352.148V162.113H350.01V153.698C351.537 152.691 352.759 152.187 353.574 152.187C355 152.187 355.763 152.892 355.763 154.303V162.113H353.625V167.958H368.492V162.113V162.163Z" fill="white"/>
<path d="M392.003 166.648L390.527 160.652C387.777 161.71 385.282 162.214 382.94 162.214C380.191 162.214 378.511 161.105 377.9 158.888H392.207C392.461 157.326 392.614 155.764 392.614 154.202C392.614 151.078 391.698 148.609 389.865 146.896C388.032 145.183 385.486 144.327 382.126 144.327C378.103 144.327 375.048 145.435 372.91 147.551C370.771 149.667 369.702 152.741 369.702 156.722C369.702 160.551 370.721 163.473 372.859 165.539C374.997 167.605 378.052 168.613 382.024 168.613C385.435 168.613 388.745 167.958 392.003 166.648ZM385.231 153.598H377.9C378.307 151.481 379.58 150.423 381.718 150.423C384.06 150.423 385.231 151.481 385.231 153.598Z" fill="white"/>
<path d="M407.947 150.877V152.691H414.006V145.737C411.613 144.83 409.016 144.377 406.216 144.377C402.855 144.377 400.157 145.032 398.171 146.292C396.134 147.551 395.167 149.416 395.167 151.935C395.167 153.497 395.523 154.756 396.287 155.764C397.051 156.772 397.967 157.528 399.087 157.931C400.157 158.334 401.226 158.687 402.346 158.989C403.466 159.291 404.383 159.594 405.146 159.896C405.91 160.249 406.317 160.702 406.317 161.256C406.317 161.861 405.503 162.113 403.975 162.113C403.262 162.113 402.397 161.962 401.379 161.659V159.795H395.32V166.597L395.269 166.748C397.662 167.958 400.819 168.512 404.688 168.512C407.692 168.512 410.136 167.907 412.02 166.698C413.904 165.489 414.871 163.524 414.871 160.904C414.871 159.291 414.464 157.981 413.7 156.873C412.936 155.764 412.02 155.008 410.9 154.555C409.78 154.101 408.71 153.749 407.641 153.497C406.521 153.245 405.605 152.993 404.841 152.691C404.077 152.388 403.721 152.036 403.721 151.582C403.721 150.978 404.434 150.675 405.91 150.675C406.47 150.675 407.132 150.776 407.947 150.927V150.877Z" fill="white"/>
<path d="M57.7283 56.9909L47.7264 43.2655L57.7283 29.9623L47.8352 22.3605L26.0919 43.7934L47.8352 65.3318L57.7283 56.9909ZM35.3328 59.2081L23.4827 43.2655L35.3328 27.7451L24.6786 19.6154L0 43.7934L24.6786 68.0769L35.3328 59.2081Z" fill="white"/>
<path d="M445.272 30.8069L455.075 44.5324L445.272 57.8356L455.075 65.4374L476.859 44.0045L455.075 22.4661L445.272 30.8069ZM467.601 28.4842L479.473 44.4268L467.601 59.9472L478.275 68.0769L503 43.8989L478.275 19.6154L467.601 28.4842Z" fill="white"/>
<path d="M165.103 57.2675H157.393L153.216 13.2238H160.498V0H134.476L115.308 41.5909L96.0321 0H69.7959V13.2238H77.0778L73.4369 57.2675H64.6557V70.3846H98.388V57.2675H91.9628L93.2479 38.285L108.347 70.3846H121.09L135.761 37.965L137.153 57.2675H129.979V70.3846H165.103V57.2675Z" fill="white"/>
<path d="M194.396 56.5564C188.602 56.5564 185.705 52.3361 185.705 43.79C185.705 36.1935 188.388 32.3952 193.753 32.3952C199.44 32.3952 202.337 36.4045 202.337 44.4231C202.229 52.4416 199.654 56.5564 194.396 56.5564ZM194.611 17.3077C185.598 17.3077 178.408 19.7344 173.043 24.5877C167.786 29.441 165.103 35.9825 165.103 44.4231C165.103 52.7582 167.571 59.4051 172.614 64.2585C177.657 69.1118 184.525 71.5385 193.216 71.5385C202.337 71.5385 209.526 69.0063 214.891 64.0474C220.149 58.9831 222.831 52.1251 222.831 43.368C222.831 35.2439 220.363 28.9135 215.32 24.2712C210.277 19.6289 203.302 17.3077 194.611 17.3077Z" fill="white"/>
<path d="M224.203 20.4915V37.684H236.336V31.8471C237.635 31.6348 239.044 31.5287 240.56 31.5287C241.86 31.5287 243.052 31.8471 244.027 32.4838C245.11 33.1206 245.544 33.8635 245.544 34.9247C245.544 36.0921 245.219 37.3656 244.569 38.7453H235.794V51.3744H244.352C247.385 51.3744 249.01 52.1173 249.01 53.4969C249.01 55.4072 247.06 56.4685 243.16 56.4685C238.177 56.4685 232.977 55.6194 227.561 53.9214L223.986 69.3098C231.027 70.7956 237.094 71.5385 242.185 71.5385C250.31 71.5385 256.593 70.0527 261.143 67.0811C265.585 64.1096 267.859 60.0768 267.859 54.7704C267.859 47.9783 265.585 43.521 260.926 41.2923C263.093 38.9575 264.176 35.986 264.176 32.4838C264.176 22.4018 257.568 17.3077 244.46 17.3077C237.094 17.3077 230.377 18.369 224.203 20.4915Z" fill="white"/>
<path d="M320.97 18.4615H269.014V31.5487H277.404V57.2975H269.014V70.3846H306.233V57.2975H297.735V33.7831H306.555V41.0183H320.97V18.4615Z" fill="white"/>
<path d="M357.446 56.7151H353.502V50.1452H357.766C359.259 50.1452 360.325 50.3571 360.964 50.781C361.604 51.2049 361.924 52.0526 361.924 53.1123C362.03 55.5495 360.431 56.7151 357.446 56.7151ZM353.502 32.0251H354.994C357.659 32.0251 358.939 32.9788 358.939 34.9922C358.939 36.2637 358.725 37.5353 358.192 38.7009H353.502V32.0251ZM356.06 18.6735H326.742V31.7072H335.165V57.3509H326.742V70.3846H357.446C365.442 70.3846 371.412 69.113 375.25 66.4639C379.088 63.9207 381.007 59.6821 381.007 53.748C381.007 47.708 378.662 43.4694 373.971 41.2441C375.996 38.8069 377.062 35.9458 377.062 32.5549C377.062 27.7865 375.357 24.2896 372.052 21.9584C368.747 19.6272 363.416 18.4615 356.06 18.4615V18.6735Z" fill="white"/>
<path d="M412.202 50.2486V54.9091C409.936 56.2861 407.778 56.9216 405.836 56.9216C403.786 56.9216 402.707 55.9683 402.707 54.1677C402.707 53.2144 403.138 52.367 404.109 51.8374C405.081 51.3078 406.052 50.8842 407.131 50.6723C408.318 50.5664 409.936 50.3546 412.202 50.2486ZM440.581 57.1334H432.056V37.0087C432.056 23.8747 424.395 17.3077 409.073 17.3077C400.764 17.3077 393.103 18.5787 385.874 21.2267V21.3326L385.55 21.2267V38.8093H400.009V32.1364C402.059 31.9246 404.109 31.8187 406.052 31.8187C410.152 31.8187 412.094 33.4074 412.094 36.585V39.6567C392.564 40.61 382.852 46.0119 382.852 55.9683C382.852 60.7347 384.471 64.5478 387.708 67.4076C390.945 70.1615 395.153 71.5385 400.117 71.5385C404.649 71.5385 409.505 69.8437 414.684 66.3484C415.008 67.4076 415.439 68.6786 416.087 70.1615H440.473V57.1334H440.581Z" fill="white"/>
</svg>
